solid ASCII
  facet normal 9.659258e-01 -2.588190e-01 -9.151088e-17
    outer loop
      vertex   9.138033e+01 1.447599e+02 1.500000e+02
      vertex   6.508432e+01 4.662185e+01 1.500000e+02
      vertex   9.138033e+01 1.447599e+02 -1.500000e+02
    endloop
  endfacet
  facet normal 9.659258e-01 -2.588190e-01 -4.475860e-17
    outer loop
      vertex   9.138033e+01 1.447599e+02 -1.500000e+02
      vertex   6.508432e+01 4.662185e+01 1.500000e+02
      vertex   6.508432e+01 4.662185e+01 -1.500000e+02
    endloop
  endfacet
  facet normal 2.588190e-01 9.659258e-01 -1.839020e-17
    outer loop
      vertex   -6.757731e+00 1.710559e+02 1.500000e+02
      vertex   9.138033e+01 1.447599e+02 1.500000e+02
      vertex   -6.757731e+00 1.710559e+02 -1.500000e+02
    endloop
  endfacet
  facet normal 2.588190e-01 9.659258e-01 -2.983907e-17
    outer loop
      vertex   -6.757731e+00 1.710559e+02 -1.500000e+02
      vertex   9.138033e+01 1.447599e+02 1.500000e+02
      vertex   9.138033e+01 1.447599e+02 -1.500000e+02
    endloop
  endfacet
  facet normal -9.659258e-01 2.588190e-01 4.575544e-17
    outer loop
      vertex   -3.305375e+01 7.291787e+01 1.500000e+02
      vertex   -6.757731e+00 1.710559e+02 1.500000e+02
      vertex   -3.305375e+01 7.291787e+01 -1.500000e+02
    endloop
  endfacet
  facet normal -9.659258e-01 2.588190e-01 7.459766e-17
    outer loop
      vertex   -3.305375e+01 7.291787e+01 -1.500000e+02
      vertex   -6.757731e+00 1.710559e+02 1.500000e+02
      vertex   -6.757731e+00 1.710559e+02 -1.500000e+02
    endloop
  endfacet
  facet normal -2.588190e-01 -9.659258e-01 1.226013e-17
    outer loop
      vertex   6.508432e+01 4.662185e+01 1.500000e+02
      vertex   -3.305375e+01 7.291787e+01 1.500000e+02
      vertex   6.508432e+01 4.662185e+01 -1.500000e+02
    endloop
  endfacet
  facet normal -2.588190e-01 -9.659258e-01 1.491953e-17
    outer loop
      vertex   6.508432e+01 4.662185e+01 -1.500000e+02
      vertex   -3.305375e+01 7.291787e+01 1.500000e+02
      vertex   -3.305375e+01 7.291787e+01 -1.500000e+02
    endloop
  endfacet
  facet normal 0.000000e+00 0.000000e+00 -1.000000e+00
    outer loop
      vertex   6.508432e+01 4.662185e+01 -1.500000e+02
      vertex   -3.305375e+01 7.291787e+01 -1.500000e+02
      vertex   9.138033e+01 1.447599e+02 -1.500000e+02
    endloop
  endfacet
  facet normal -0.000000e+00 0.000000e+00 -1.000000e+00
    outer loop
      vertex   9.138033e+01 1.447599e+02 -1.500000e+02
      vertex   -3.305375e+01 7.291787e+01 -1.500000e+02
      vertex   -6.757731e+00 1.710559e+02 -1.500000e+02
    endloop
  endfacet
  facet normal -0.000000e+00 0.000000e+00 1.000000e+00
    outer loop
      vertex   -3.305375e+01 7.291787e+01 1.500000e+02
      vertex   6.508432e+01 4.662185e+01 1.500000e+02
      vertex   -6.757731e+00 1.710559e+02 1.500000e+02
    endloop
  endfacet
  facet normal 0.000000e+00 0.000000e+00 1.000000e+00
    outer loop
      vertex   -6.757731e+00 1.710559e+02 1.500000e+02
      vertex   6.508432e+01 4.662185e+01 1.500000e+02
      vertex   9.138033e+01 1.447599e+02 1.500000e+02
    endloop
  endfacet
  facet normal -2.588190e-01 9.659258e-01 -9.315342e-17
    outer loop
      vertex   -1.710559e+02 6.757731e+00 1.500000e+02
      vertex   -7.291787e+01 3.305375e+01 1.500000e+02
      vertex   -1.710559e+02 6.757731e+00 -1.500000e+02
    endloop
  endfacet
  facet normal -2.588190e-01 9.659258e-01 -5.967813e-17
    outer loop
      vertex   -1.710559e+02 6.757731e+00 -1.500000e+02
      vertex   -7.291787e+01 3.305375e+01 1.500000e+02
      vertex   -7.291787e+01 3.305375e+01 -1.500000e+02
    endloop
  endfacet
  facet normal -9.659258e-01 -2.588190e-01 2.452027e-17
    outer loop
      vertex   -1.447599e+02 -9.138033e+01 1.500000e+02
      vertex   -1.710559e+02 6.757731e+00 1.500000e+02
      vertex   -1.447599e+02 -9.138033e+01 -1.500000e+02
    endloop
  endfacet
  facet normal -9.659258e-01 -2.588190e-01 -5.967813e-17
    outer loop
      vertex   -1.447599e+02 -9.138033e+01 -1.500000e+02
      vertex   -1.710559e+02 6.757731e+00 1.500000e+02
      vertex   -1.710559e+02 6.757731e+00 -1.500000e+02
    endloop
  endfacet
  facet normal 2.588190e-01 -9.659258e-01 5.188551e-17
    outer loop
      vertex   -4.662185e+01 -6.508432e+01 1.500000e+02
      vertex   -1.447599e+02 -9.138033e+01 1.500000e+02
      vertex   -4.662185e+01 -6.508432e+01 -1.500000e+02
    endloop
  endfacet
  facet normal 2.588190e-01 -9.659258e-01 8.951720e-17
    outer loop
      vertex   -4.662185e+01 -6.508432e+01 -1.500000e+02
      vertex   -1.447599e+02 -9.138033e+01 1.500000e+02
      vertex   -1.447599e+02 -9.138033e+01 -1.500000e+02
    endloop
  endfacet
  facet normal 9.659258e-01 2.588190e-01 3.349531e-17
    outer loop
      vertex   -7.291787e+01 3.305375e+01 1.500000e+02
      vertex   -4.662185e+01 -6.508432e+01 1.500000e+02
      vertex   -7.291787e+01 3.305375e+01 -1.500000e+02
    endloop
  endfacet
  facet normal 9.659258e-01 2.588190e-01 1.491953e-17
    outer loop
      vertex   -7.291787e+01 3.305375e+01 -1.500000e+02
      vertex   -4.662185e+01 -6.508432e+01 1.500000e+02
      vertex   -4.662185e+01 -6.508432e+01 -1.500000e+02
    endloop
  endfacet
  facet normal 0.000000e+00 -0.000000e+00 -1.000000e+00
    outer loop
      vertex   -7.291787e+01 3.305375e+01 -1.500000e+02
      vertex   -4.662185e+01 -6.508432e+01 -1.500000e+02
      vertex   -1.710559e+02 6.757731e+00 -1.500000e+02
    endloop
  endfacet
  facet normal 0.000000e+00 0.000000e+00 -1.000000e+00
    outer loop
      vertex   -1.710559e+02 6.757731e+00 -1.500000e+02
      vertex   -4.662185e+01 -6.508432e+01 -1.500000e+02
      vertex   -1.447599e+02 -9.138033e+01 -1.500000e+02
    endloop
  endfacet
  facet normal 0.000000e+00 0.000000e+00 1.000000e+00
    outer loop
      vertex   -4.662185e+01 -6.508432e+01 1.500000e+02
      vertex   -7.291787e+01 3.305375e+01 1.500000e+02
      vertex   -1.447599e+02 -9.138033e+01 1.500000e+02
    endloop
  endfacet
  facet normal 0.000000e+00 -0.000000e+00 1.000000e+00
    outer loop
      vertex   -1.447599e+02 -9.138033e+01 1.500000e+02
      vertex   -7.291787e+01 3.305375e+01 1.500000e+02
      vertex   -1.710559e+02 6.757731e+00 1.500000e+02
    endloop
  endfacet
  facet normal -7.071068e-01 -7.071068e-01 -6.699061e-17
    outer loop
      vertex   7.967560e+01 -1.515176e+02 1.500000e+02
      vertex   7.833549e+00 -7.967560e+01 1.500000e+02
      vertex   7.967560e+01 -1.515176e+02 -1.500000e+02
    endloop
  endfacet
  facet normal -7.071068e-01 -7.071068e-01 -5.967813e-17
    outer loop
      vertex   7.967560e+01 -1.515176e+02 -1.500000e+02
      vertex   7.833549e+00 -7.967560e+01 1.500000e+02
      vertex   7.833549e+00 -7.967560e+01 -1.500000e+02
    endloop
  endfacet
  facet normal 7.071068e-01 -7.071068e-01 3.349531e-17
    outer loop
      vertex   1.515176e+02 -7.967560e+01 1.500000e+02
      vertex   7.967560e+01 -1.515176e+02 1.500000e+02
      vertex   1.515176e+02 -7.967560e+01 -1.500000e+02
    endloop
  endfacet
  facet normal 7.071068e-01 -7.071068e-01 -8.951720e-17
    outer loop
      vertex   1.515176e+02 -7.967560e+01 -1.500000e+02
      vertex   7.967560e+01 -1.515176e+02 1.500000e+02
      vertex   7.967560e+01 -1.515176e+02 -1.500000e+02
    endloop
  endfacet
  facet normal 7.071068e-01 7.071068e-01 1.004859e-16
    outer loop
      vertex   7.967560e+01 -7.833549e+00 1.500000e+02
      vertex   1.515176e+02 -7.967560e+01 1.500000e+02
      vertex   7.967560e+01 -7.833549e+00 -1.500000e+02
    endloop
  endfacet
  facet normal 7.071068e-01 7.071068e-01 1.193563e-16
    outer loop
      vertex   7.967560e+01 -7.833549e+00 -1.500000e+02
      vertex   1.515176e+02 -7.967560e+01 1.500000e+02
      vertex   1.515176e+02 -7.967560e+01 -1.500000e+02
    endloop
  endfacet
  facet normal -7.071068e-01 7.071068e-01 6.699061e-17
    outer loop
      vertex   7.833549e+00 -7.967560e+01 1.500000e+02
      vertex   7.967560e+01 -7.833549e+00 1.500000e+02
      vertex   7.833549e+00 -7.967560e+01 -1.500000e+02
    endloop
  endfacet
  facet normal -7.071068e-01 7.071068e-01 2.983907e-17
    outer loop
      vertex   7.833549e+00 -7.967560e+01 -1.500000e+02
      vertex   7.967560e+01 -7.833549e+00 1.500000e+02
      vertex   7.967560e+01 -7.833549e+00 -1.500000e+02
    endloop
  endfacet
  facet normal 0.000000e+00 0.000000e+00 -1.000000e+00
    outer loop
      vertex   7.833549e+00 -7.967560e+01 -1.500000e+02
      vertex   7.967560e+01 -7.833549e+00 -1.500000e+02
      vertex   7.967560e+01 -1.515176e+02 -1.500000e+02
    endloop
  endfacet
  facet normal 0.000000e+00 0.000000e+00 -1.000000e+00
    outer loop
      vertex   7.967560e+01 -1.515176e+02 -1.500000e+02
      vertex   7.967560e+01 -7.833549e+00 -1.500000e+02
      vertex   1.515176e+02 -7.967560e+01 -1.500000e+02
    endloop
  endfacet
  facet normal 0.000000e+00 0.000000e+00 1.000000e+00
    outer loop
      vertex   7.967560e+01 -7.833549e+00 1.500000e+02
      vertex   7.833549e+00 -7.967560e+01 1.500000e+02
      vertex   1.515176e+02 -7.967560e+01 1.500000e+02
    endloop
  endfacet
  facet normal 0.000000e+00 0.000000e+00 1.000000e+00
    outer loop
      vertex   1.515176e+02 -7.967560e+01 1.500000e+02
      vertex   7.833549e+00 -7.967560e+01 1.500000e+02
      vertex   7.967560e+01 -1.515176e+02 1.500000e+02
    endloop
  endfacet
endsolid
