solid ASCII
  facet normal 9.659258e-01 -2.588190e-01 -9.151088e-17
    outer loop
      vertex   1.006728e+02 1.794398e+02 7.500000e+01
      vertex   7.437677e+01 8.130175e+01 7.500000e+01
      vertex   1.006728e+02 1.794398e+02 -7.500000e+01
    endloop
  endfacet
  facet normal 9.659258e-01 -2.588190e-01 -8.951720e-17
    outer loop
      vertex   1.006728e+02 1.794398e+02 -7.500000e+01
      vertex   7.437677e+01 8.130175e+01 7.500000e+01
      vertex   7.437677e+01 8.130175e+01 -7.500000e+01
    endloop
  endfacet
  facet normal 2.588190e-01 9.659258e-01 -2.452027e-17
    outer loop
      vertex   2.534720e+00 2.057358e+02 7.500000e+01
      vertex   1.006728e+02 1.794398e+02 7.500000e+01
      vertex   2.534720e+00 2.057358e+02 -7.500000e+01
    endloop
  endfacet
  facet normal 2.588190e-01 9.659258e-01 -2.983907e-17
    outer loop
      vertex   2.534720e+00 2.057358e+02 -7.500000e+01
      vertex   1.006728e+02 1.794398e+02 7.500000e+01
      vertex   1.006728e+02 1.794398e+02 -7.500000e+01
    endloop
  endfacet
  facet normal -9.659258e-01 2.588190e-01 9.151088e-17
    outer loop
      vertex   -2.376130e+01 1.075978e+02 7.500000e+01
      vertex   2.534720e+00 2.057358e+02 7.500000e+01
      vertex   -2.376130e+01 1.075978e+02 -7.500000e+01
    endloop
  endfacet
  facet normal -9.659258e-01 2.588190e-01 8.951720e-17
    outer loop
      vertex   -2.376130e+01 1.075978e+02 -7.500000e+01
      vertex   2.534720e+00 2.057358e+02 7.500000e+01
      vertex   2.534720e+00 2.057358e+02 -7.500000e+01
    endloop
  endfacet
  facet normal -2.588190e-01 -9.659258e-01 2.452027e-17
    outer loop
      vertex   7.437677e+01 8.130175e+01 7.500000e+01
      vertex   -2.376130e+01 1.075978e+02 7.500000e+01
      vertex   7.437677e+01 8.130175e+01 -7.500000e+01
    endloop
  endfacet
  facet normal -2.588190e-01 -9.659258e-01 2.983907e-17
    outer loop
      vertex   7.437677e+01 8.130175e+01 -7.500000e+01
      vertex   -2.376130e+01 1.075978e+02 7.500000e+01
      vertex   -2.376130e+01 1.075978e+02 -7.500000e+01
    endloop
  endfacet
  facet normal 0.000000e+00 0.000000e+00 -1.000000e+00
    outer loop
      vertex   7.437677e+01 8.130175e+01 -7.500000e+01
      vertex   -2.376130e+01 1.075978e+02 -7.500000e+01
      vertex   1.006728e+02 1.794398e+02 -7.500000e+01
    endloop
  endfacet
  facet normal -0.000000e+00 0.000000e+00 -1.000000e+00
    outer loop
      vertex   1.006728e+02 1.794398e+02 -7.500000e+01
      vertex   -2.376130e+01 1.075978e+02 -7.500000e+01
      vertex   2.534720e+00 2.057358e+02 -7.500000e+01
    endloop
  endfacet
  facet normal -0.000000e+00 0.000000e+00 1.000000e+00
    outer loop
      vertex   -2.376130e+01 1.075978e+02 7.500000e+01
      vertex   7.437677e+01 8.130175e+01 7.500000e+01
      vertex   2.534720e+00 2.057358e+02 7.500000e+01
    endloop
  endfacet
  facet normal 0.000000e+00 0.000000e+00 1.000000e+00
    outer loop
      vertex   2.534720e+00 2.057358e+02 7.500000e+01
      vertex   7.437677e+01 8.130175e+01 7.500000e+01
      vertex   1.006728e+02 1.794398e+02 7.500000e+01
    endloop
  endfacet
  facet normal 7.071068e-01 7.071068e-01 0.000000e+00
    outer loop
      vertex   -1.050630e+02 1.769051e+02 7.500000e+01
      vertex   -3.322100e+01 1.050630e+02 7.500000e+01
      vertex   -1.050630e+02 1.769051e+02 -7.500000e+01
    endloop
  endfacet
  facet normal 7.071068e-01 7.071068e-01 -1.193563e-16
    outer loop
      vertex   -1.050630e+02 1.769051e+02 -7.500000e+01
      vertex   -3.322100e+01 1.050630e+02 7.500000e+01
      vertex   -3.322100e+01 1.050630e+02 -7.500000e+01
    endloop
  endfacet
  facet normal -7.071068e-01 7.071068e-01 -6.699061e-17
    outer loop
      vertex   -1.769051e+02 1.050630e+02 7.500000e+01
      vertex   -1.050630e+02 1.769051e+02 7.500000e+01
      vertex   -1.769051e+02 1.050630e+02 -7.500000e+01
    endloop
  endfacet
  facet normal -7.071068e-01 7.071068e-01 0.000000e+00
    outer loop
      vertex   -1.769051e+02 1.050630e+02 -7.500000e+01
      vertex   -1.050630e+02 1.769051e+02 7.500000e+01
      vertex   -1.050630e+02 1.769051e+02 -7.500000e+01
    endloop
  endfacet
  facet normal -7.071068e-01 -7.071068e-01 -0.000000e+00
    outer loop
      vertex   -1.050630e+02 3.322100e+01 7.500000e+01
      vertex   -1.769051e+02 1.050630e+02 7.500000e+01
      vertex   -1.050630e+02 3.322100e+01 -7.500000e+01
    endloop
  endfacet
  facet normal -7.071068e-01 -7.071068e-01 5.967813e-17
    outer loop
      vertex   -1.050630e+02 3.322100e+01 -7.500000e+01
      vertex   -1.769051e+02 1.050630e+02 7.500000e+01
      vertex   -1.769051e+02 1.050630e+02 -7.500000e+01
    endloop
  endfacet
  facet normal 7.071068e-01 -7.071068e-01 1.272116e-30
    outer loop
      vertex   -3.322100e+01 1.050630e+02 7.500000e+01
      vertex   -1.050630e+02 3.322100e+01 7.500000e+01
      vertex   -3.322100e+01 1.050630e+02 -7.500000e+01
    endloop
  endfacet
  facet normal 7.071068e-01 -7.071068e-01 0.000000e+00
    outer loop
      vertex   -3.322100e+01 1.050630e+02 -7.500000e+01
      vertex   -1.050630e+02 3.322100e+01 7.500000e+01
      vertex   -1.050630e+02 3.322100e+01 -7.500000e+01
    endloop
  endfacet
  facet normal -0.000000e+00 0.000000e+00 -1.000000e+00
    outer loop
      vertex   -3.322100e+01 1.050630e+02 -7.500000e+01
      vertex   -1.050630e+02 3.322100e+01 -7.500000e+01
      vertex   -1.050630e+02 1.769051e+02 -7.500000e+01
    endloop
  endfacet
  facet normal 0.000000e+00 0.000000e+00 -1.000000e+00
    outer loop
      vertex   -1.050630e+02 1.769051e+02 -7.500000e+01
      vertex   -1.050630e+02 3.322100e+01 -7.500000e+01
      vertex   -1.769051e+02 1.050630e+02 -7.500000e+01
    endloop
  endfacet
  facet normal 0.000000e+00 -0.000000e+00 1.000000e+00
    outer loop
      vertex   -1.050630e+02 3.322100e+01 7.500000e+01
      vertex   -3.322100e+01 1.050630e+02 7.500000e+01
      vertex   -1.769051e+02 1.050630e+02 7.500000e+01
    endloop
  endfacet
  facet normal -0.000000e+00 0.000000e+00 1.000000e+00
    outer loop
      vertex   -1.769051e+02 1.050630e+02 7.500000e+01
      vertex   -3.322100e+01 1.050630e+02 7.500000e+01
      vertex   -1.050630e+02 1.769051e+02 7.500000e+01
    endloop
  endfacet
  facet normal -2.588190e-01 9.659258e-01 -9.151088e-17
    outer loop
      vertex   -2.057358e+02 -2.534720e+00 7.500000e+01
      vertex   -1.075978e+02 2.376130e+01 7.500000e+01
      vertex   -2.057358e+02 -2.534720e+00 -7.500000e+01
    endloop
  endfacet
  facet normal -2.588190e-01 9.659258e-01 -8.951720e-17
    outer loop
      vertex   -2.057358e+02 -2.534720e+00 -7.500000e+01
      vertex   -1.075978e+02 2.376130e+01 7.500000e+01
      vertex   -1.075978e+02 2.376130e+01 -7.500000e+01
    endloop
  endfacet
  facet normal -9.659258e-01 -2.588190e-01 -0.000000e+00
    outer loop
      vertex   -1.794398e+02 -1.006728e+02 7.500000e+01
      vertex   -2.057358e+02 -2.534720e+00 7.500000e+01
      vertex   -1.794398e+02 -1.006728e+02 -7.500000e+01
    endloop
  endfacet
  facet normal -9.659258e-01 -2.588190e-01 0.000000e+00
    outer loop
      vertex   -1.794398e+02 -1.006728e+02 -7.500000e+01
      vertex   -2.057358e+02 -2.534720e+00 7.500000e+01
      vertex   -2.057358e+02 -2.534720e+00 -7.500000e+01
    endloop
  endfacet
  facet normal 2.588190e-01 -9.659258e-01 2.452027e-17
    outer loop
      vertex   -8.130175e+01 -7.437677e+01 7.500000e+01
      vertex   -1.794398e+02 -1.006728e+02 7.500000e+01
      vertex   -8.130175e+01 -7.437677e+01 -7.500000e+01
    endloop
  endfacet
  facet normal 2.588190e-01 -9.659258e-01 0.000000e+00
    outer loop
      vertex   -8.130175e+01 -7.437677e+01 -7.500000e+01
      vertex   -1.794398e+02 -1.006728e+02 7.500000e+01
      vertex   -1.794398e+02 -1.006728e+02 -7.500000e+01
    endloop
  endfacet
  facet normal 9.659258e-01 2.588190e-01 7.925074e-17
    outer loop
      vertex   -1.075978e+02 2.376130e+01 7.500000e+01
      vertex   -8.130175e+01 -7.437677e+01 7.500000e+01
      vertex   -1.075978e+02 2.376130e+01 -7.500000e+01
    endloop
  endfacet
  facet normal 9.659258e-01 2.588190e-01 8.951720e-17
    outer loop
      vertex   -1.075978e+02 2.376130e+01 -7.500000e+01
      vertex   -8.130175e+01 -7.437677e+01 7.500000e+01
      vertex   -8.130175e+01 -7.437677e+01 -7.500000e+01
    endloop
  endfacet
  facet normal 0.000000e+00 -0.000000e+00 -1.000000e+00
    outer loop
      vertex   -1.075978e+02 2.376130e+01 -7.500000e+01
      vertex   -8.130175e+01 -7.437677e+01 -7.500000e+01
      vertex   -2.057358e+02 -2.534720e+00 -7.500000e+01
    endloop
  endfacet
  facet normal 0.000000e+00 0.000000e+00 -1.000000e+00
    outer loop
      vertex   -2.057358e+02 -2.534720e+00 -7.500000e+01
      vertex   -8.130175e+01 -7.437677e+01 -7.500000e+01
      vertex   -1.794398e+02 -1.006728e+02 -7.500000e+01
    endloop
  endfacet
  facet normal 0.000000e+00 0.000000e+00 1.000000e+00
    outer loop
      vertex   -8.130175e+01 -7.437677e+01 7.500000e+01
      vertex   -1.075978e+02 2.376130e+01 7.500000e+01
      vertex   -1.794398e+02 -1.006728e+02 7.500000e+01
    endloop
  endfacet
  facet normal 0.000000e+00 -0.000000e+00 1.000000e+00
    outer loop
      vertex   -1.794398e+02 -1.006728e+02 7.500000e+01
      vertex   -1.075978e+02 2.376130e+01 7.500000e+01
      vertex   -2.057358e+02 -2.534720e+00 7.500000e+01
    endloop
  endfacet
  facet normal -9.659258e-01 2.588190e-01 -1.830218e-16
    outer loop
      vertex   -1.006728e+02 -1.794398e+02 7.500000e+01
      vertex   -7.437677e+01 -8.130175e+01 7.500000e+01
      vertex   -1.006728e+02 -1.794398e+02 -7.500000e+01
    endloop
  endfacet
  facet normal -9.659258e-01 2.588190e-01 -8.951720e-17
    outer loop
      vertex   -1.006728e+02 -1.794398e+02 -7.500000e+01
      vertex   -7.437677e+01 -8.130175e+01 7.500000e+01
      vertex   -7.437677e+01 -8.130175e+01 -7.500000e+01
    endloop
  endfacet
  facet normal -2.588190e-01 -9.659258e-01 -2.452027e-17
    outer loop
      vertex   -2.534720e+00 -2.057358e+02 7.500000e+01
      vertex   -1.006728e+02 -1.794398e+02 7.500000e+01
      vertex   -2.534720e+00 -2.057358e+02 -7.500000e+01
    endloop
  endfacet
  facet normal -2.588190e-01 -9.659258e-01 -5.967813e-17
    outer loop
      vertex   -2.534720e+00 -2.057358e+02 -7.500000e+01
      vertex   -1.006728e+02 -1.794398e+02 7.500000e+01
      vertex   -1.006728e+02 -1.794398e+02 -7.500000e+01
    endloop
  endfacet
  facet normal 9.659258e-01 -2.588190e-01 4.575544e-17
    outer loop
      vertex   2.376130e+01 -1.075978e+02 7.500000e+01
      vertex   -2.534720e+00 -2.057358e+02 7.500000e+01
      vertex   2.376130e+01 -1.075978e+02 -7.500000e+01
    endloop
  endfacet
  facet normal 9.659258e-01 -2.588190e-01 8.951720e-17
    outer loop
      vertex   2.376130e+01 -1.075978e+02 -7.500000e+01
      vertex   -2.534720e+00 -2.057358e+02 7.500000e+01
      vertex   -2.534720e+00 -2.057358e+02 -7.500000e+01
    endloop
  endfacet
  facet normal 2.588190e-01 9.659258e-01 2.452027e-17
    outer loop
      vertex   -7.437677e+01 -8.130175e+01 7.500000e+01
      vertex   2.376130e+01 -1.075978e+02 7.500000e+01
      vertex   -7.437677e+01 -8.130175e+01 -7.500000e+01
    endloop
  endfacet
  facet normal 2.588190e-01 9.659258e-01 0.000000e+00
    outer loop
      vertex   -7.437677e+01 -8.130175e+01 -7.500000e+01
      vertex   2.376130e+01 -1.075978e+02 7.500000e+01
      vertex   2.376130e+01 -1.075978e+02 -7.500000e+01
    endloop
  endfacet
  facet normal 0.000000e+00 -0.000000e+00 -1.000000e+00
    outer loop
      vertex   -7.437677e+01 -8.130175e+01 -7.500000e+01
      vertex   2.376130e+01 -1.075978e+02 -7.500000e+01
      vertex   -1.006728e+02 -1.794398e+02 -7.500000e+01
    endloop
  endfacet
  facet normal 0.000000e+00 0.000000e+00 -1.000000e+00
    outer loop
      vertex   -1.006728e+02 -1.794398e+02 -7.500000e+01
      vertex   2.376130e+01 -1.075978e+02 -7.500000e+01
      vertex   -2.534720e+00 -2.057358e+02 -7.500000e+01
    endloop
  endfacet
  facet normal 0.000000e+00 0.000000e+00 1.000000e+00
    outer loop
      vertex   2.376130e+01 -1.075978e+02 7.500000e+01
      vertex   -7.437677e+01 -8.130175e+01 7.500000e+01
      vertex   -2.534720e+00 -2.057358e+02 7.500000e+01
    endloop
  endfacet
  facet normal 0.000000e+00 0.000000e+00 1.000000e+00
    outer loop
      vertex   -2.534720e+00 -2.057358e+02 7.500000e+01
      vertex   -7.437677e+01 -8.130175e+01 7.500000e+01
      vertex   -1.006728e+02 -1.794398e+02 7.500000e+01
    endloop
  endfacet
  facet normal -7.071068e-01 -7.071068e-01 -2.009718e-16
    outer loop
      vertex   1.050630e+02 -1.769051e+02 7.500000e+01
      vertex   3.322100e+01 -1.050630e+02 7.500000e+01
      vertex   1.050630e+02 -1.769051e+02 -7.500000e+01
    endloop
  endfacet
  facet normal -7.071068e-01 -7.071068e-01 -1.193563e-16
    outer loop
      vertex   1.050630e+02 -1.769051e+02 -7.500000e+01
      vertex   3.322100e+01 -1.050630e+02 7.500000e+01
      vertex   3.322100e+01 -1.050630e+02 -7.500000e+01
    endloop
  endfacet
  facet normal 7.071068e-01 -7.071068e-01 -6.699061e-17
    outer loop
      vertex   1.769051e+02 -1.050630e+02 7.500000e+01
      vertex   1.050630e+02 -1.769051e+02 7.500000e+01
      vertex   1.769051e+02 -1.050630e+02 -7.500000e+01
    endloop
  endfacet
  facet normal 7.071068e-01 -7.071068e-01 -5.967813e-17
    outer loop
      vertex   1.769051e+02 -1.050630e+02 -7.500000e+01
      vertex   1.050630e+02 -1.769051e+02 7.500000e+01
      vertex   1.050630e+02 -1.769051e+02 -7.500000e+01
    endloop
  endfacet
  facet normal 7.071068e-01 7.071068e-01 0.000000e+00
    outer loop
      vertex   1.050630e+02 -3.322100e+01 7.500000e+01
      vertex   1.769051e+02 -1.050630e+02 7.500000e+01
      vertex   1.050630e+02 -3.322100e+01 -7.500000e+01
    endloop
  endfacet
  facet normal 7.071068e-01 7.071068e-01 5.967813e-17
    outer loop
      vertex   1.050630e+02 -3.322100e+01 -7.500000e+01
      vertex   1.769051e+02 -1.050630e+02 7.500000e+01
      vertex   1.769051e+02 -1.050630e+02 -7.500000e+01
    endloop
  endfacet
  facet normal -7.071068e-01 7.071068e-01 1.298618e-30
    outer loop
      vertex   3.322100e+01 -1.050630e+02 7.500000e+01
      vertex   1.050630e+02 -3.322100e+01 7.500000e+01
      vertex   3.322100e+01 -1.050630e+02 -7.500000e+01
    endloop
  endfacet
  facet normal -7.071068e-01 7.071068e-01 0.000000e+00
    outer loop
      vertex   3.322100e+01 -1.050630e+02 -7.500000e+01
      vertex   1.050630e+02 -3.322100e+01 7.500000e+01
      vertex   1.050630e+02 -3.322100e+01 -7.500000e+01
    endloop
  endfacet
  facet normal 0.000000e+00 0.000000e+00 -1.000000e+00
    outer loop
      vertex   3.322100e+01 -1.050630e+02 -7.500000e+01
      vertex   1.050630e+02 -3.322100e+01 -7.500000e+01
      vertex   1.050630e+02 -1.769051e+02 -7.500000e+01
    endloop
  endfacet
  facet normal 0.000000e+00 0.000000e+00 -1.000000e+00
    outer loop
      vertex   1.050630e+02 -1.769051e+02 -7.500000e+01
      vertex   1.050630e+02 -3.322100e+01 -7.500000e+01
      vertex   1.769051e+02 -1.050630e+02 -7.500000e+01
    endloop
  endfacet
  facet normal 0.000000e+00 0.000000e+00 1.000000e+00
    outer loop
      vertex   1.050630e+02 -3.322100e+01 7.500000e+01
      vertex   3.322100e+01 -1.050630e+02 7.500000e+01
      vertex   1.769051e+02 -1.050630e+02 7.500000e+01
    endloop
  endfacet
  facet normal 0.000000e+00 0.000000e+00 1.000000e+00
    outer loop
      vertex   1.769051e+02 -1.050630e+02 7.500000e+01
      vertex   3.322100e+01 -1.050630e+02 7.500000e+01
      vertex   1.050630e+02 -1.769051e+02 7.500000e+01
    endloop
  endfacet
  facet normal 2.588190e-01 -9.659258e-01 -4.575544e-17
    outer loop
      vertex   2.057358e+02 2.534720e+00 7.500000e+01
      vertex   1.075978e+02 -2.376130e+01 7.500000e+01
      vertex   2.057358e+02 2.534720e+00 -7.500000e+01
    endloop
  endfacet
  facet normal 2.588190e-01 -9.659258e-01 -8.951720e-17
    outer loop
      vertex   2.057358e+02 2.534720e+00 -7.500000e+01
      vertex   1.075978e+02 -2.376130e+01 7.500000e+01
      vertex   1.075978e+02 -2.376130e+01 -7.500000e+01
    endloop
  endfacet
  facet normal 9.659258e-01 2.588190e-01 2.452027e-17
    outer loop
      vertex   1.794398e+02 1.006728e+02 7.500000e+01
      vertex   2.057358e+02 2.534720e+00 7.500000e+01
      vertex   1.794398e+02 1.006728e+02 -7.500000e+01
    endloop
  endfacet
  facet normal 9.659258e-01 2.588190e-01 0.000000e+00
    outer loop
      vertex   1.794398e+02 1.006728e+02 -7.500000e+01
      vertex   2.057358e+02 2.534720e+00 7.500000e+01
      vertex   2.057358e+02 2.534720e+00 -7.500000e+01
    endloop
  endfacet
  facet normal -2.588190e-01 9.659258e-01 1.830218e-16
    outer loop
      vertex   8.130175e+01 7.437677e+01 7.500000e+01
      vertex   1.794398e+02 1.006728e+02 7.500000e+01
      vertex   8.130175e+01 7.437677e+01 -7.500000e+01
    endloop
  endfacet
  facet normal -2.588190e-01 9.659258e-01 8.951720e-17
    outer loop
      vertex   8.130175e+01 7.437677e+01 -7.500000e+01
      vertex   1.794398e+02 1.006728e+02 7.500000e+01
      vertex   1.794398e+02 1.006728e+02 -7.500000e+01
    endloop
  endfacet
  facet normal -9.659258e-01 -2.588190e-01 -2.452027e-17
    outer loop
      vertex   1.075978e+02 -2.376130e+01 7.500000e+01
      vertex   8.130175e+01 7.437677e+01 7.500000e+01
      vertex   1.075978e+02 -2.376130e+01 -7.500000e+01
    endloop
  endfacet
  facet normal -9.659258e-01 -2.588190e-01 -5.967813e-17
    outer loop
      vertex   1.075978e+02 -2.376130e+01 -7.500000e+01
      vertex   8.130175e+01 7.437677e+01 7.500000e+01
      vertex   8.130175e+01 7.437677e+01 -7.500000e+01
    endloop
  endfacet
  facet normal 0.000000e+00 0.000000e+00 -1.000000e+00
    outer loop
      vertex   1.075978e+02 -2.376130e+01 -7.500000e+01
      vertex   8.130175e+01 7.437677e+01 -7.500000e+01
      vertex   2.057358e+02 2.534720e+00 -7.500000e+01
    endloop
  endfacet
  facet normal 0.000000e+00 0.000000e+00 -1.000000e+00
    outer loop
      vertex   2.057358e+02 2.534720e+00 -7.500000e+01
      vertex   8.130175e+01 7.437677e+01 -7.500000e+01
      vertex   1.794398e+02 1.006728e+02 -7.500000e+01
    endloop
  endfacet
  facet normal -0.000000e+00 0.000000e+00 1.000000e+00
    outer loop
      vertex   8.130175e+01 7.437677e+01 7.500000e+01
      vertex   1.075978e+02 -2.376130e+01 7.500000e+01
      vertex   1.794398e+02 1.006728e+02 7.500000e+01
    endloop
  endfacet
  facet normal 0.000000e+00 0.000000e+00 1.000000e+00
    outer loop
      vertex   1.794398e+02 1.006728e+02 7.500000e+01
      vertex   1.075978e+02 -2.376130e+01 7.500000e+01
      vertex   2.057358e+02 2.534720e+00 7.500000e+01
    endloop
  endfacet
endsolid
