solid ASCII
  facet normal 0.000000e+00 -0.000000e+00 -1.000000e+00
    outer loop
      vertex   2.499364e+00 2.057971e+02 7.505000e+01
      vertex   1.007340e+02 1.794752e+02 7.505000e+01
      vertex   -2.382253e+01 1.075624e+02 7.505000e+01
    endloop
  endfacet
  facet normal 0.000000e+00 0.000000e+00 -1.000000e+00
    outer loop
      vertex   -2.382253e+01 1.075624e+02 7.505000e+01
      vertex   1.007340e+02 1.794752e+02 7.505000e+01
      vertex   7.441212e+01 8.124051e+01 7.505000e+01
    endloop
  endfacet
  facet normal 0.000000e+00 0.000000e+00 1.000000e+00
    outer loop
      vertex   1.007340e+02 1.794752e+02 -7.505000e+01
      vertex   2.499364e+00 2.057971e+02 -7.505000e+01
      vertex   7.441212e+01 8.124051e+01 -7.505000e+01
    endloop
  endfacet
  facet normal 0.000000e+00 0.000000e+00 1.000000e+00
    outer loop
      vertex   7.441212e+01 8.124051e+01 -7.505000e+01
      vertex   2.499364e+00 2.057971e+02 -7.505000e+01
      vertex   -2.382253e+01 1.075624e+02 -7.505000e+01
    endloop
  endfacet
  facet normal -2.588190e-01 -9.659258e-01 -0.000000e+00
    outer loop
      vertex   1.007340e+02 1.794752e+02 7.505000e+01
      vertex   2.499364e+00 2.057971e+02 7.505000e+01
      vertex   1.007340e+02 1.794752e+02 -7.505000e+01
    endloop
  endfacet
  facet normal -2.588190e-01 -9.659258e-01 2.978986e-17
    outer loop
      vertex   1.007340e+02 1.794752e+02 -7.505000e+01
      vertex   2.499364e+00 2.057971e+02 7.505000e+01
      vertex   2.499364e+00 2.057971e+02 -7.505000e+01
    endloop
  endfacet
  facet normal -9.659258e-01 2.588190e-01 0.000000e+00
    outer loop
      vertex   7.441212e+01 8.124051e+01 7.505000e+01
      vertex   1.007340e+02 1.794752e+02 7.505000e+01
      vertex   7.441212e+01 8.124051e+01 -7.505000e+01
    endloop
  endfacet
  facet normal -9.659258e-01 2.588190e-01 0.000000e+00
    outer loop
      vertex   7.441212e+01 8.124051e+01 -7.505000e+01
      vertex   1.007340e+02 1.794752e+02 7.505000e+01
      vertex   1.007340e+02 1.794752e+02 -7.505000e+01
    endloop
  endfacet
  facet normal 2.588190e-01 9.659258e-01 -3.675589e-17
    outer loop
      vertex   -2.382253e+01 1.075624e+02 7.505000e+01
      vertex   7.441212e+01 8.124051e+01 7.505000e+01
      vertex   -2.382253e+01 1.075624e+02 -7.505000e+01
    endloop
  endfacet
  facet normal 2.588190e-01 9.659258e-01 0.000000e+00
    outer loop
      vertex   -2.382253e+01 1.075624e+02 -7.505000e+01
      vertex   7.441212e+01 8.124051e+01 7.505000e+01
      vertex   7.441212e+01 8.124051e+01 -7.505000e+01
    endloop
  endfacet
  facet normal 9.659258e-01 -2.588190e-01 -1.371749e-16
    outer loop
      vertex   2.499364e+00 2.057971e+02 7.505000e+01
      vertex   -2.382253e+01 1.075624e+02 7.505000e+01
      vertex   2.499364e+00 2.057971e+02 -7.505000e+01
    endloop
  endfacet
  facet normal 9.659258e-01 -2.588190e-01 -1.489493e-16
    outer loop
      vertex   2.499364e+00 2.057971e+02 -7.505000e+01
      vertex   -2.382253e+01 1.075624e+02 7.505000e+01
      vertex   -2.382253e+01 1.075624e+02 -7.505000e+01
    endloop
  endfacet
  facet normal -9.659258e-01 2.588190e-01 9.048538e-17
    outer loop
      vertex   2.216521e+00 2.062870e+02 -7.585000e+01
      vertex   -2.431243e+01 1.072796e+02 -7.585000e+01
      vertex   2.216521e+00 2.062870e+02 7.585000e+01
    endloop
  endfacet
  facet normal -9.659258e-01 2.588190e-01 1.169825e-16
    outer loop
      vertex   2.216521e+00 2.062870e+02 7.585000e+01
      vertex   -2.431243e+01 1.072796e+02 -7.585000e+01
      vertex   -2.431243e+01 1.072796e+02 7.585000e+01
    endloop
  endfacet
  facet normal 2.588190e-01 9.659258e-01 -4.849097e-17
    outer loop
      vertex   1.012239e+02 1.797580e+02 -7.585000e+01
      vertex   2.216521e+00 2.062870e+02 -7.585000e+01
      vertex   1.012239e+02 1.797580e+02 7.585000e+01
    endloop
  endfacet
  facet normal 2.588190e-01 9.659258e-01 -5.849123e-17
    outer loop
      vertex   1.012239e+02 1.797580e+02 7.585000e+01
      vertex   2.216521e+00 2.062870e+02 -7.585000e+01
      vertex   2.216521e+00 2.062870e+02 7.585000e+01
    endloop
  endfacet
  facet normal 9.659258e-01 -2.588190e-01 -1.809708e-16
    outer loop
      vertex   7.469497e+01 8.075062e+01 -7.585000e+01
      vertex   1.012239e+02 1.797580e+02 -7.585000e+01
      vertex   7.469497e+01 8.075062e+01 7.585000e+01
    endloop
  endfacet
  facet normal 9.659258e-01 -2.588190e-01 -1.754737e-16
    outer loop
      vertex   7.469497e+01 8.075062e+01 7.585000e+01
      vertex   1.012239e+02 1.797580e+02 -7.585000e+01
      vertex   1.012239e+02 1.797580e+02 7.585000e+01
    endloop
  endfacet
  facet normal -2.588190e-01 -9.659258e-01 3.636823e-17
    outer loop
      vertex   -2.431243e+01 1.072796e+02 -7.585000e+01
      vertex   7.469497e+01 8.075062e+01 -7.585000e+01
      vertex   -2.431243e+01 1.072796e+02 7.585000e+01
    endloop
  endfacet
  facet normal -2.588190e-01 -9.659258e-01 5.849123e-17
    outer loop
      vertex   -2.431243e+01 1.072796e+02 7.585000e+01
      vertex   7.469497e+01 8.075062e+01 -7.585000e+01
      vertex   7.469497e+01 8.075062e+01 7.585000e+01
    endloop
  endfacet
  facet normal 0.000000e+00 0.000000e+00 -1.000000e+00
    outer loop
      vertex   7.469497e+01 8.075062e+01 -7.585000e+01
      vertex   -2.431243e+01 1.072796e+02 -7.585000e+01
      vertex   1.012239e+02 1.797580e+02 -7.585000e+01
    endloop
  endfacet
  facet normal -0.000000e+00 0.000000e+00 -1.000000e+00
    outer loop
      vertex   1.012239e+02 1.797580e+02 -7.585000e+01
      vertex   -2.431243e+01 1.072796e+02 -7.585000e+01
      vertex   2.216521e+00 2.062870e+02 -7.585000e+01
    endloop
  endfacet
  facet normal 1.698017e-16 9.803504e-17 1.000000e+00
    outer loop
      vertex   -2.431243e+01 1.072796e+02 7.585000e+01
      vertex   7.469497e+01 8.075062e+01 7.585000e+01
      vertex   2.216521e+00 2.062870e+02 7.585000e+01
    endloop
  endfacet
  facet normal 0.000000e+00 0.000000e+00 1.000000e+00
    outer loop
      vertex   2.216521e+00 2.062870e+02 7.585000e+01
      vertex   7.469497e+01 8.075062e+01 7.585000e+01
      vertex   1.012239e+02 1.797580e+02 7.585000e+01
    endloop
  endfacet
  facet normal 0.000000e+00 0.000000e+00 -1.000000e+00
    outer loop
      vertex   -1.769758e+02 1.050630e+02 7.505000e+01
      vertex   -1.050630e+02 1.769758e+02 7.505000e+01
      vertex   -1.050630e+02 3.315029e+01 7.505000e+01
    endloop
  endfacet
  facet normal 0.000000e+00 0.000000e+00 -1.000000e+00
    outer loop
      vertex   -1.050630e+02 3.315029e+01 7.505000e+01
      vertex   -1.050630e+02 1.769758e+02 7.505000e+01
      vertex   -3.315029e+01 1.050630e+02 7.505000e+01
    endloop
  endfacet
  facet normal 0.000000e+00 0.000000e+00 1.000000e+00
    outer loop
      vertex   -1.050630e+02 1.769758e+02 -7.505000e+01
      vertex   -1.769758e+02 1.050630e+02 -7.505000e+01
      vertex   -3.315029e+01 1.050630e+02 -7.505000e+01
    endloop
  endfacet
  facet normal 0.000000e+00 0.000000e+00 1.000000e+00
    outer loop
      vertex   -3.315029e+01 1.050630e+02 -7.505000e+01
      vertex   -1.769758e+02 1.050630e+02 -7.505000e+01
      vertex   -1.050630e+02 3.315029e+01 -7.505000e+01
    endloop
  endfacet
  facet normal 7.071068e-01 -7.071068e-01 2.677839e-16
    outer loop
      vertex   -1.050630e+02 1.769758e+02 7.505000e+01
      vertex   -1.769758e+02 1.050630e+02 7.505000e+01
      vertex   -1.050630e+02 1.769758e+02 -7.505000e+01
    endloop
  endfacet
  facet normal 7.071068e-01 -7.071068e-01 5.957973e-17
    outer loop
      vertex   -1.050630e+02 1.769758e+02 -7.505000e+01
      vertex   -1.769758e+02 1.050630e+02 7.505000e+01
      vertex   -1.769758e+02 1.050630e+02 -7.505000e+01
    endloop
  endfacet
  facet normal -7.071068e-01 -7.071068e-01 1.338920e-16
    outer loop
      vertex   -3.315029e+01 1.050630e+02 7.505000e+01
      vertex   -1.050630e+02 1.769758e+02 7.505000e+01
      vertex   -3.315029e+01 1.050630e+02 -7.505000e+01
    endloop
  endfacet
  facet normal -7.071068e-01 -7.071068e-01 2.383189e-16
    outer loop
      vertex   -3.315029e+01 1.050630e+02 -7.505000e+01
      vertex   -1.050630e+02 1.769758e+02 7.505000e+01
      vertex   -1.050630e+02 1.769758e+02 -7.505000e+01
    endloop
  endfacet
  facet normal -7.071068e-01 7.071068e-01 -5.291743e-32
    outer loop
      vertex   -1.050630e+02 3.315029e+01 7.505000e+01
      vertex   -3.315029e+01 1.050630e+02 7.505000e+01
      vertex   -1.050630e+02 3.315029e+01 -7.505000e+01
    endloop
  endfacet
  facet normal -7.071068e-01 7.071068e-01 0.000000e+00
    outer loop
      vertex   -1.050630e+02 3.315029e+01 -7.505000e+01
      vertex   -3.315029e+01 1.050630e+02 7.505000e+01
      vertex   -3.315029e+01 1.050630e+02 -7.505000e+01
    endloop
  endfacet
  facet normal 7.071068e-01 7.071068e-01 -6.694598e-17
    outer loop
      vertex   -1.769758e+02 1.050630e+02 7.505000e+01
      vertex   -1.050630e+02 3.315029e+01 7.505000e+01
      vertex   -1.769758e+02 1.050630e+02 -7.505000e+01
    endloop
  endfacet
  facet normal 7.071068e-01 7.071068e-01 -1.191595e-16
    outer loop
      vertex   -1.769758e+02 1.050630e+02 -7.505000e+01
      vertex   -1.050630e+02 3.315029e+01 7.505000e+01
      vertex   -1.050630e+02 3.315029e+01 -7.505000e+01
    endloop
  endfacet
  facet normal -7.071068e-01 -7.071068e-01 6.623989e-17
    outer loop
      vertex   -1.775415e+02 1.050630e+02 -7.585000e+01
      vertex   -1.050630e+02 3.258460e+01 -7.585000e+01
      vertex   -1.775415e+02 1.050630e+02 7.585000e+01
    endloop
  endfacet
  facet normal -7.071068e-01 -7.071068e-01 1.169825e-16
    outer loop
      vertex   -1.775415e+02 1.050630e+02 7.585000e+01
      vertex   -1.050630e+02 3.258460e+01 -7.585000e+01
      vertex   -1.050630e+02 3.258460e+01 7.585000e+01
    endloop
  endfacet
  facet normal -7.071068e-01 7.071068e-01 6.623989e-17
    outer loop
      vertex   -1.050630e+02 1.775415e+02 -7.585000e+01
      vertex   -1.775415e+02 1.050630e+02 -7.585000e+01
      vertex   -1.050630e+02 1.775415e+02 7.585000e+01
    endloop
  endfacet
  facet normal -7.071068e-01 7.071068e-01 -1.169825e-16
    outer loop
      vertex   -1.050630e+02 1.775415e+02 7.585000e+01
      vertex   -1.775415e+02 1.050630e+02 -7.585000e+01
      vertex   -1.775415e+02 1.050630e+02 7.585000e+01
    endloop
  endfacet
  facet normal 7.071068e-01 7.071068e-01 -1.324798e-16
    outer loop
      vertex   -3.258460e+01 1.050630e+02 -7.585000e+01
      vertex   -1.050630e+02 1.775415e+02 -7.585000e+01
      vertex   -3.258460e+01 1.050630e+02 7.585000e+01
    endloop
  endfacet
  facet normal 7.071068e-01 7.071068e-01 -1.169825e-16
    outer loop
      vertex   -3.258460e+01 1.050630e+02 7.585000e+01
      vertex   -1.050630e+02 1.775415e+02 -7.585000e+01
      vertex   -1.050630e+02 1.775415e+02 7.585000e+01
    endloop
  endfacet
  facet normal 7.071068e-01 -7.071068e-01 6.623989e-17
    outer loop
      vertex   -1.050630e+02 3.258460e+01 -7.585000e+01
      vertex   -3.258460e+01 1.050630e+02 -7.585000e+01
      vertex   -1.050630e+02 3.258460e+01 7.585000e+01
    endloop
  endfacet
  facet normal 7.071068e-01 -7.071068e-01 0.000000e+00
    outer loop
      vertex   -1.050630e+02 3.258460e+01 7.585000e+01
      vertex   -3.258460e+01 1.050630e+02 -7.585000e+01
      vertex   -3.258460e+01 1.050630e+02 7.585000e+01
    endloop
  endfacet
  facet normal -0.000000e+00 0.000000e+00 -1.000000e+00
    outer loop
      vertex   -3.258460e+01 1.050630e+02 -7.585000e+01
      vertex   -1.050630e+02 3.258460e+01 -7.585000e+01
      vertex   -1.050630e+02 1.775415e+02 -7.585000e+01
    endloop
  endfacet
  facet normal 0.000000e+00 0.000000e+00 -1.000000e+00
    outer loop
      vertex   -1.050630e+02 1.775415e+02 -7.585000e+01
      vertex   -1.050630e+02 3.258460e+01 -7.585000e+01
      vertex   -1.775415e+02 1.050630e+02 -7.585000e+01
    endloop
  endfacet
  facet normal 7.688695e-32 1.960701e-16 1.000000e+00
    outer loop
      vertex   -1.050630e+02 3.258460e+01 7.585000e+01
      vertex   -3.258460e+01 1.050630e+02 7.585000e+01
      vertex   -1.775415e+02 1.050630e+02 7.585000e+01
    endloop
  endfacet
  facet normal -0.000000e+00 0.000000e+00 1.000000e+00
    outer loop
      vertex   -1.775415e+02 1.050630e+02 7.585000e+01
      vertex   -3.258460e+01 1.050630e+02 7.585000e+01
      vertex   -1.050630e+02 1.775415e+02 7.585000e+01
    endloop
  endfacet
  facet normal 0.000000e+00 0.000000e+00 -1.000000e+00
    outer loop
      vertex   -1.794752e+02 -1.007340e+02 7.505000e+01
      vertex   -2.057971e+02 -2.499364e+00 7.505000e+01
      vertex   -8.124051e+01 -7.441212e+01 7.505000e+01
    endloop
  endfacet
  facet normal 0.000000e+00 0.000000e+00 -1.000000e+00
    outer loop
      vertex   -8.124051e+01 -7.441212e+01 7.505000e+01
      vertex   -2.057971e+02 -2.499364e+00 7.505000e+01
      vertex   -1.075624e+02 2.382253e+01 7.505000e+01
    endloop
  endfacet
  facet normal -0.000000e+00 0.000000e+00 1.000000e+00
    outer loop
      vertex   -2.057971e+02 -2.499364e+00 -7.505000e+01
      vertex   -1.794752e+02 -1.007340e+02 -7.505000e+01
      vertex   -1.075624e+02 2.382253e+01 -7.505000e+01
    endloop
  endfacet
  facet normal 0.000000e+00 0.000000e+00 1.000000e+00
    outer loop
      vertex   -1.075624e+02 2.382253e+01 -7.505000e+01
      vertex   -1.794752e+02 -1.007340e+02 -7.505000e+01
      vertex   -8.124051e+01 -7.441212e+01 -7.505000e+01
    endloop
  endfacet
  facet normal 9.659258e-01 2.588190e-01 1.583959e-16
    outer loop
      vertex   -2.057971e+02 -2.499364e+00 7.505000e+01
      vertex   -1.794752e+02 -1.007340e+02 7.505000e+01
      vertex   -2.057971e+02 -2.499364e+00 -7.505000e+01
    endloop
  endfacet
  facet normal 9.659258e-01 2.588190e-01 -5.957973e-17
    outer loop
      vertex   -2.057971e+02 -2.499364e+00 -7.505000e+01
      vertex   -1.794752e+02 -1.007340e+02 7.505000e+01
      vertex   -1.794752e+02 -1.007340e+02 -7.505000e+01
    endloop
  endfacet
  facet normal 2.588190e-01 -9.659258e-01 1.616788e-16
    outer loop
      vertex   -1.075624e+02 2.382253e+01 7.505000e+01
      vertex   -2.057971e+02 -2.499364e+00 7.505000e+01
      vertex   -1.075624e+02 2.382253e+01 -7.505000e+01
    endloop
  endfacet
  facet normal 2.588190e-01 -9.659258e-01 1.489493e-16
    outer loop
      vertex   -1.075624e+02 2.382253e+01 -7.505000e+01
      vertex   -2.057971e+02 -2.499364e+00 7.505000e+01
      vertex   -2.057971e+02 -2.499364e+00 -7.505000e+01
    endloop
  endfacet
  facet normal -9.659258e-01 -2.588190e-01 -0.000000e+00
    outer loop
      vertex   -8.124051e+01 -7.441212e+01 7.505000e+01
      vertex   -1.075624e+02 2.382253e+01 7.505000e+01
      vertex   -8.124051e+01 -7.441212e+01 -7.505000e+01
    endloop
  endfacet
  facet normal -9.659258e-01 -2.588190e-01 -5.957973e-17
    outer loop
      vertex   -8.124051e+01 -7.441212e+01 -7.505000e+01
      vertex   -1.075624e+02 2.382253e+01 7.505000e+01
      vertex   -1.075624e+02 2.382253e+01 -7.505000e+01
    endloop
  endfacet
  facet normal -2.588190e-01 9.659258e-01 -1.828998e-16
    outer loop
      vertex   -1.794752e+02 -1.007340e+02 7.505000e+01
      vertex   -8.124051e+01 -7.441212e+01 7.505000e+01
      vertex   -1.794752e+02 -1.007340e+02 -7.505000e+01
    endloop
  endfacet
  facet normal -2.588190e-01 9.659258e-01 0.000000e+00
    outer loop
      vertex   -1.794752e+02 -1.007340e+02 -7.505000e+01
      vertex   -8.124051e+01 -7.441212e+01 7.505000e+01
      vertex   -8.124051e+01 -7.441212e+01 -7.505000e+01
    endloop
  endfacet
  facet normal 2.588190e-01 -9.659258e-01 2.294617e-16
    outer loop
      vertex   -1.797580e+02 -1.012239e+02 -7.585000e+01
      vertex   -8.075062e+01 -7.469497e+01 -7.585000e+01
      vertex   -1.797580e+02 -1.012239e+02 7.585000e+01
    endloop
  endfacet
  facet normal 2.588190e-01 -9.659258e-01 1.169825e-16
    outer loop
      vertex   -1.797580e+02 -1.012239e+02 7.585000e+01
      vertex   -8.075062e+01 -7.469497e+01 -7.585000e+01
      vertex   -8.075062e+01 -7.469497e+01 7.585000e+01
    endloop
  endfacet
  facet normal -9.659258e-01 -2.588190e-01 1.212274e-17
    outer loop
      vertex   -2.062870e+02 -2.216521e+00 -7.585000e+01
      vertex   -1.797580e+02 -1.012239e+02 -7.585000e+01
      vertex   -2.062870e+02 -2.216521e+00 7.585000e+01
    endloop
  endfacet
  facet normal -9.659258e-01 -2.588190e-01 -1.462281e-16
    outer loop
      vertex   -2.062870e+02 -2.216521e+00 7.585000e+01
      vertex   -1.797580e+02 -1.012239e+02 -7.585000e+01
      vertex   -1.797580e+02 -1.012239e+02 7.585000e+01
    endloop
  endfacet
  facet normal -2.588190e-01 9.659258e-01 -1.147309e-16
    outer loop
      vertex   -1.072796e+02 2.431243e+01 -7.585000e+01
      vertex   -2.062870e+02 -2.216521e+00 -7.585000e+01
      vertex   -1.072796e+02 2.431243e+01 7.585000e+01
    endloop
  endfacet
  facet normal -2.588190e-01 9.659258e-01 -2.924561e-17
    outer loop
      vertex   -1.072796e+02 2.431243e+01 7.585000e+01
      vertex   -2.062870e+02 -2.216521e+00 -7.585000e+01
      vertex   -2.062870e+02 -2.216521e+00 7.585000e+01
    endloop
  endfacet
  facet normal 9.659258e-01 2.588190e-01 6.623989e-17
    outer loop
      vertex   -8.075062e+01 -7.469497e+01 -7.585000e+01
      vertex   -1.072796e+02 2.431243e+01 -7.585000e+01
      vertex   -8.075062e+01 -7.469497e+01 7.585000e+01
    endloop
  endfacet
  facet normal 9.659258e-01 2.588190e-01 8.773684e-17
    outer loop
      vertex   -8.075062e+01 -7.469497e+01 7.585000e+01
      vertex   -1.072796e+02 2.431243e+01 -7.585000e+01
      vertex   -1.072796e+02 2.431243e+01 7.585000e+01
    endloop
  endfacet
  facet normal 0.000000e+00 -0.000000e+00 -1.000000e+00
    outer loop
      vertex   -1.072796e+02 2.431243e+01 -7.585000e+01
      vertex   -8.075062e+01 -7.469497e+01 -7.585000e+01
      vertex   -2.062870e+02 -2.216521e+00 -7.585000e+01
    endloop
  endfacet
  facet normal 0.000000e+00 0.000000e+00 -1.000000e+00
    outer loop
      vertex   -2.062870e+02 -2.216521e+00 -7.585000e+01
      vertex   -8.075062e+01 -7.469497e+01 -7.585000e+01
      vertex   -1.797580e+02 -1.012239e+02 -7.585000e+01
    endloop
  endfacet
  facet normal -1.698017e-16 9.803504e-17 1.000000e+00
    outer loop
      vertex   -8.075062e+01 -7.469497e+01 7.585000e+01
      vertex   -1.072796e+02 2.431243e+01 7.585000e+01
      vertex   -1.797580e+02 -1.012239e+02 7.585000e+01
    endloop
  endfacet
  facet normal 0.000000e+00 -0.000000e+00 1.000000e+00
    outer loop
      vertex   -1.797580e+02 -1.012239e+02 7.585000e+01
      vertex   -1.072796e+02 2.431243e+01 7.585000e+01
      vertex   -2.062870e+02 -2.216521e+00 7.585000e+01
    endloop
  endfacet
  facet normal 0.000000e+00 0.000000e+00 -1.000000e+00
    outer loop
      vertex   -2.499364e+00 -2.057971e+02 7.505000e+01
      vertex   -1.007340e+02 -1.794752e+02 7.505000e+01
      vertex   2.382253e+01 -1.075624e+02 7.505000e+01
    endloop
  endfacet
  facet normal -0.000000e+00 0.000000e+00 -1.000000e+00
    outer loop
      vertex   2.382253e+01 -1.075624e+02 7.505000e+01
      vertex   -1.007340e+02 -1.794752e+02 7.505000e+01
      vertex   -7.441212e+01 -8.124051e+01 7.505000e+01
    endloop
  endfacet
  facet normal -0.000000e+00 0.000000e+00 1.000000e+00
    outer loop
      vertex   -1.007340e+02 -1.794752e+02 -7.505000e+01
      vertex   -2.499364e+00 -2.057971e+02 -7.505000e+01
      vertex   -7.441212e+01 -8.124051e+01 -7.505000e+01
    endloop
  endfacet
  facet normal 0.000000e+00 0.000000e+00 1.000000e+00
    outer loop
      vertex   -7.441212e+01 -8.124051e+01 -7.505000e+01
      vertex   -2.499364e+00 -2.057971e+02 -7.505000e+01
      vertex   2.382253e+01 -1.075624e+02 -7.505000e+01
    endloop
  endfacet
  facet normal 2.588190e-01 9.659258e-01 4.900786e-17
    outer loop
      vertex   -1.007340e+02 -1.794752e+02 7.505000e+01
      vertex   -2.499364e+00 -2.057971e+02 7.505000e+01
      vertex   -1.007340e+02 -1.794752e+02 -7.505000e+01
    endloop
  endfacet
  facet normal 2.588190e-01 9.659258e-01 2.978986e-17
    outer loop
      vertex   -1.007340e+02 -1.794752e+02 -7.505000e+01
      vertex   -2.499364e+00 -2.057971e+02 7.505000e+01
      vertex   -2.499364e+00 -2.057971e+02 -7.505000e+01
    endloop
  endfacet
  facet normal 9.659258e-01 -2.588190e-01 9.144991e-17
    outer loop
      vertex   -7.441212e+01 -8.124051e+01 7.505000e+01
      vertex   -1.007340e+02 -1.794752e+02 7.505000e+01
      vertex   -7.441212e+01 -8.124051e+01 -7.505000e+01
    endloop
  endfacet
  facet normal 9.659258e-01 -2.588190e-01 1.787392e-16
    outer loop
      vertex   -7.441212e+01 -8.124051e+01 -7.505000e+01
      vertex   -1.007340e+02 -1.794752e+02 7.505000e+01
      vertex   -1.007340e+02 -1.794752e+02 -7.505000e+01
    endloop
  endfacet
  facet normal -2.588190e-01 -9.659258e-01 -2.450393e-17
    outer loop
      vertex   2.382253e+01 -1.075624e+02 7.505000e+01
      vertex   -7.441212e+01 -8.124051e+01 7.505000e+01
      vertex   2.382253e+01 -1.075624e+02 -7.505000e+01
    endloop
  endfacet
  facet normal -2.588190e-01 -9.659258e-01 -2.978986e-17
    outer loop
      vertex   2.382253e+01 -1.075624e+02 -7.505000e+01
      vertex   -7.441212e+01 -8.124051e+01 7.505000e+01
      vertex   -7.441212e+01 -8.124051e+01 -7.505000e+01
    endloop
  endfacet
  facet normal -9.659258e-01 2.588190e-01 -1.371749e-16
    outer loop
      vertex   -2.499364e+00 -2.057971e+02 7.505000e+01
      vertex   2.382253e+01 -1.075624e+02 7.505000e+01
      vertex   -2.499364e+00 -2.057971e+02 -7.505000e+01
    endloop
  endfacet
  facet normal -9.659258e-01 2.588190e-01 -8.936959e-17
    outer loop
      vertex   -2.499364e+00 -2.057971e+02 -7.505000e+01
      vertex   2.382253e+01 -1.075624e+02 7.505000e+01
      vertex   2.382253e+01 -1.075624e+02 -7.505000e+01
    endloop
  endfacet
  facet normal 9.659258e-01 -2.588190e-01 1.357281e-16
    outer loop
      vertex   -2.216521e+00 -2.062870e+02 -7.585000e+01
      vertex   2.431243e+01 -1.072796e+02 -7.585000e+01
      vertex   -2.216521e+00 -2.062870e+02 7.585000e+01
    endloop
  endfacet
  facet normal 9.659258e-01 -2.588190e-01 1.462281e-16
    outer loop
      vertex   -2.216521e+00 -2.062870e+02 7.585000e+01
      vertex   2.431243e+01 -1.072796e+02 -7.585000e+01
      vertex   2.431243e+01 -1.072796e+02 7.585000e+01
    endloop
  endfacet
  facet normal -2.588190e-01 -9.659258e-01 -4.849097e-17
    outer loop
      vertex   -1.012239e+02 -1.797580e+02 -7.585000e+01
      vertex   -2.216521e+00 -2.062870e+02 -7.585000e+01
      vertex   -1.012239e+02 -1.797580e+02 7.585000e+01
    endloop
  endfacet
  facet normal -2.588190e-01 -9.659258e-01 -2.924561e-17
    outer loop
      vertex   -1.012239e+02 -1.797580e+02 7.585000e+01
      vertex   -2.216521e+00 -2.062870e+02 -7.585000e+01
      vertex   -2.216521e+00 -2.062870e+02 7.585000e+01
    endloop
  endfacet
  facet normal -9.659258e-01 2.588190e-01 0.000000e+00
    outer loop
      vertex   -7.469497e+01 -8.075062e+01 -7.585000e+01
      vertex   -1.012239e+02 -1.797580e+02 -7.585000e+01
      vertex   -7.469497e+01 -8.075062e+01 7.585000e+01
    endloop
  endfacet
  facet normal -9.659258e-01 2.588190e-01 -1.754737e-16
    outer loop
      vertex   -7.469497e+01 -8.075062e+01 7.585000e+01
      vertex   -1.012239e+02 -1.797580e+02 -7.585000e+01
      vertex   -1.012239e+02 -1.797580e+02 7.585000e+01
    endloop
  endfacet
  facet normal 2.588190e-01 9.659258e-01 3.636823e-17
    outer loop
      vertex   2.431243e+01 -1.072796e+02 -7.585000e+01
      vertex   -7.469497e+01 -8.075062e+01 -7.585000e+01
      vertex   2.431243e+01 -1.072796e+02 7.585000e+01
    endloop
  endfacet
  facet normal 2.588190e-01 9.659258e-01 0.000000e+00
    outer loop
      vertex   2.431243e+01 -1.072796e+02 7.585000e+01
      vertex   -7.469497e+01 -8.075062e+01 -7.585000e+01
      vertex   -7.469497e+01 -8.075062e+01 7.585000e+01
    endloop
  endfacet
  facet normal 0.000000e+00 -0.000000e+00 -1.000000e+00
    outer loop
      vertex   -7.469497e+01 -8.075062e+01 -7.585000e+01
      vertex   2.431243e+01 -1.072796e+02 -7.585000e+01
      vertex   -1.012239e+02 -1.797580e+02 -7.585000e+01
    endloop
  endfacet
  facet normal 0.000000e+00 0.000000e+00 -1.000000e+00
    outer loop
      vertex   -1.012239e+02 -1.797580e+02 -7.585000e+01
      vertex   2.431243e+01 -1.072796e+02 -7.585000e+01
      vertex   -2.216521e+00 -2.062870e+02 -7.585000e+01
    endloop
  endfacet
  facet normal -1.698017e-16 -9.803504e-17 1.000000e+00
    outer loop
      vertex   2.431243e+01 -1.072796e+02 7.585000e+01
      vertex   -7.469497e+01 -8.075062e+01 7.585000e+01
      vertex   -2.216521e+00 -2.062870e+02 7.585000e+01
    endloop
  endfacet
  facet normal 0.000000e+00 0.000000e+00 1.000000e+00
    outer loop
      vertex   -2.216521e+00 -2.062870e+02 7.585000e+01
      vertex   -7.469497e+01 -8.075062e+01 7.585000e+01
      vertex   -1.012239e+02 -1.797580e+02 7.585000e+01
    endloop
  endfacet
  facet normal -0.000000e+00 0.000000e+00 -1.000000e+00
    outer loop
      vertex   1.769758e+02 -1.050630e+02 7.505000e+01
      vertex   1.050630e+02 -1.769758e+02 7.505000e+01
      vertex   1.050630e+02 -3.315029e+01 7.505000e+01
    endloop
  endfacet
  facet normal 0.000000e+00 0.000000e+00 -1.000000e+00
    outer loop
      vertex   1.050630e+02 -3.315029e+01 7.505000e+01
      vertex   1.050630e+02 -1.769758e+02 7.505000e+01
      vertex   3.315029e+01 -1.050630e+02 7.505000e+01
    endloop
  endfacet
  facet normal 0.000000e+00 -0.000000e+00 1.000000e+00
    outer loop
      vertex   1.050630e+02 -1.769758e+02 -7.505000e+01
      vertex   1.769758e+02 -1.050630e+02 -7.505000e+01
      vertex   3.315029e+01 -1.050630e+02 -7.505000e+01
    endloop
  endfacet
  facet normal -0.000000e+00 0.000000e+00 1.000000e+00
    outer loop
      vertex   3.315029e+01 -1.050630e+02 -7.505000e+01
      vertex   1.769758e+02 -1.050630e+02 -7.505000e+01
      vertex   1.050630e+02 -3.315029e+01 -7.505000e+01
    endloop
  endfacet
  facet normal -7.071068e-01 7.071068e-01 1.338920e-16
    outer loop
      vertex   1.050630e+02 -1.769758e+02 7.505000e+01
      vertex   1.769758e+02 -1.050630e+02 7.505000e+01
      vertex   1.050630e+02 -1.769758e+02 -7.505000e+01
    endloop
  endfacet
  facet normal -7.071068e-01 7.071068e-01 0.000000e+00
    outer loop
      vertex   1.050630e+02 -1.769758e+02 -7.505000e+01
      vertex   1.769758e+02 -1.050630e+02 7.505000e+01
      vertex   1.769758e+02 -1.050630e+02 -7.505000e+01
    endloop
  endfacet
  facet normal 7.071068e-01 7.071068e-01 1.338920e-16
    outer loop
      vertex   3.315029e+01 -1.050630e+02 7.505000e+01
      vertex   1.050630e+02 -1.769758e+02 7.505000e+01
      vertex   3.315029e+01 -1.050630e+02 -7.505000e+01
    endloop
  endfacet
  facet normal 7.071068e-01 7.071068e-01 1.191595e-16
    outer loop
      vertex   3.315029e+01 -1.050630e+02 -7.505000e+01
      vertex   1.050630e+02 -1.769758e+02 7.505000e+01
      vertex   1.050630e+02 -1.769758e+02 -7.505000e+01
    endloop
  endfacet
  facet normal 7.071068e-01 -7.071068e-01 -5.291743e-32
    outer loop
      vertex   1.050630e+02 -3.315029e+01 7.505000e+01
      vertex   3.315029e+01 -1.050630e+02 7.505000e+01
      vertex   1.050630e+02 -3.315029e+01 -7.505000e+01
    endloop
  endfacet
  facet normal 7.071068e-01 -7.071068e-01 0.000000e+00
    outer loop
      vertex   1.050630e+02 -3.315029e+01 -7.505000e+01
      vertex   3.315029e+01 -1.050630e+02 7.505000e+01
      vertex   3.315029e+01 -1.050630e+02 -7.505000e+01
    endloop
  endfacet
  facet normal -7.071068e-01 -7.071068e-01 -0.000000e+00
    outer loop
      vertex   1.769758e+02 -1.050630e+02 7.505000e+01
      vertex   1.050630e+02 -3.315029e+01 7.505000e+01
      vertex   1.769758e+02 -1.050630e+02 -7.505000e+01
    endloop
  endfacet
  facet normal -7.071068e-01 -7.071068e-01 -1.191595e-16
    outer loop
      vertex   1.769758e+02 -1.050630e+02 -7.505000e+01
      vertex   1.050630e+02 -3.315029e+01 7.505000e+01
      vertex   1.050630e+02 -3.315029e+01 -7.505000e+01
    endloop
  endfacet
  facet normal 7.071068e-01 7.071068e-01 6.623989e-17
    outer loop
      vertex   1.775415e+02 -1.050630e+02 -7.585000e+01
      vertex   1.050630e+02 -3.258460e+01 -7.585000e+01
      vertex   1.775415e+02 -1.050630e+02 7.585000e+01
    endloop
  endfacet
  facet normal 7.071068e-01 7.071068e-01 1.169825e-16
    outer loop
      vertex   1.775415e+02 -1.050630e+02 7.585000e+01
      vertex   1.050630e+02 -3.258460e+01 -7.585000e+01
      vertex   1.050630e+02 -3.258460e+01 7.585000e+01
    endloop
  endfacet
  facet normal 7.071068e-01 -7.071068e-01 0.000000e+00
    outer loop
      vertex   1.050630e+02 -1.775415e+02 -7.585000e+01
      vertex   1.775415e+02 -1.050630e+02 -7.585000e+01
      vertex   1.050630e+02 -1.775415e+02 7.585000e+01
    endloop
  endfacet
  facet normal 7.071068e-01 -7.071068e-01 -5.849123e-17
    outer loop
      vertex   1.050630e+02 -1.775415e+02 7.585000e+01
      vertex   1.775415e+02 -1.050630e+02 -7.585000e+01
      vertex   1.775415e+02 -1.050630e+02 7.585000e+01
    endloop
  endfacet
  facet normal -7.071068e-01 -7.071068e-01 -1.324798e-16
    outer loop
      vertex   3.258460e+01 -1.050630e+02 -7.585000e+01
      vertex   1.050630e+02 -1.775415e+02 -7.585000e+01
      vertex   3.258460e+01 -1.050630e+02 7.585000e+01
    endloop
  endfacet
  facet normal -7.071068e-01 -7.071068e-01 0.000000e+00
    outer loop
      vertex   3.258460e+01 -1.050630e+02 7.585000e+01
      vertex   1.050630e+02 -1.775415e+02 -7.585000e+01
      vertex   1.050630e+02 -1.775415e+02 7.585000e+01
    endloop
  endfacet
  facet normal -7.071068e-01 7.071068e-01 5.195065e-32
    outer loop
      vertex   1.050630e+02 -3.258460e+01 -7.585000e+01
      vertex   3.258460e+01 -1.050630e+02 -7.585000e+01
      vertex   1.050630e+02 -3.258460e+01 7.585000e+01
    endloop
  endfacet
  facet normal -7.071068e-01 7.071068e-01 0.000000e+00
    outer loop
      vertex   1.050630e+02 -3.258460e+01 7.585000e+01
      vertex   3.258460e+01 -1.050630e+02 -7.585000e+01
      vertex   3.258460e+01 -1.050630e+02 7.585000e+01
    endloop
  endfacet
  facet normal 0.000000e+00 0.000000e+00 -1.000000e+00
    outer loop
      vertex   3.258460e+01 -1.050630e+02 -7.585000e+01
      vertex   1.050630e+02 -3.258460e+01 -7.585000e+01
      vertex   1.050630e+02 -1.775415e+02 -7.585000e+01
    endloop
  endfacet
  facet normal 0.000000e+00 0.000000e+00 -1.000000e+00
    outer loop
      vertex   1.050630e+02 -1.775415e+02 -7.585000e+01
      vertex   1.050630e+02 -3.258460e+01 -7.585000e+01
      vertex   1.775415e+02 -1.050630e+02 -7.585000e+01
    endloop
  endfacet
  facet normal -7.688695e-32 -1.960701e-16 1.000000e+00
    outer loop
      vertex   1.050630e+02 -3.258460e+01 7.585000e+01
      vertex   3.258460e+01 -1.050630e+02 7.585000e+01
      vertex   1.775415e+02 -1.050630e+02 7.585000e+01
    endloop
  endfacet
  facet normal 0.000000e+00 0.000000e+00 1.000000e+00
    outer loop
      vertex   1.775415e+02 -1.050630e+02 7.585000e+01
      vertex   3.258460e+01 -1.050630e+02 7.585000e+01
      vertex   1.050630e+02 -1.775415e+02 7.585000e+01
    endloop
  endfacet
  facet normal 0.000000e+00 -0.000000e+00 -1.000000e+00
    outer loop
      vertex   1.794752e+02 1.007340e+02 7.505000e+01
      vertex   2.057971e+02 2.499364e+00 7.505000e+01
      vertex   8.124051e+01 7.441212e+01 7.505000e+01
    endloop
  endfacet
  facet normal 0.000000e+00 0.000000e+00 -1.000000e+00
    outer loop
      vertex   8.124051e+01 7.441212e+01 7.505000e+01
      vertex   2.057971e+02 2.499364e+00 7.505000e+01
      vertex   1.075624e+02 -2.382253e+01 7.505000e+01
    endloop
  endfacet
  facet normal 0.000000e+00 0.000000e+00 1.000000e+00
    outer loop
      vertex   2.057971e+02 2.499364e+00 -7.505000e+01
      vertex   1.794752e+02 1.007340e+02 -7.505000e+01
      vertex   1.075624e+02 -2.382253e+01 -7.505000e+01
    endloop
  endfacet
  facet normal 0.000000e+00 -0.000000e+00 1.000000e+00
    outer loop
      vertex   1.075624e+02 -2.382253e+01 -7.505000e+01
      vertex   1.794752e+02 1.007340e+02 -7.505000e+01
      vertex   8.124051e+01 7.441212e+01 -7.505000e+01
    endloop
  endfacet
  facet normal -9.659258e-01 -2.588190e-01 -2.450393e-17
    outer loop
      vertex   2.057971e+02 2.499364e+00 7.505000e+01
      vertex   1.794752e+02 1.007340e+02 7.505000e+01
      vertex   2.057971e+02 2.499364e+00 -7.505000e+01
    endloop
  endfacet
  facet normal -9.659258e-01 -2.588190e-01 1.489493e-16
    outer loop
      vertex   2.057971e+02 2.499364e+00 -7.505000e+01
      vertex   1.794752e+02 1.007340e+02 7.505000e+01
      vertex   1.794752e+02 1.007340e+02 -7.505000e+01
    endloop
  endfacet
  facet normal -2.588190e-01 9.659258e-01 1.159538e-16
    outer loop
      vertex   1.075624e+02 -2.382253e+01 7.505000e+01
      vertex   2.057971e+02 2.499364e+00 7.505000e+01
      vertex   1.075624e+02 -2.382253e+01 -7.505000e+01
    endloop
  endfacet
  facet normal -2.588190e-01 9.659258e-01 8.936959e-17
    outer loop
      vertex   1.075624e+02 -2.382253e+01 -7.505000e+01
      vertex   2.057971e+02 2.499364e+00 7.505000e+01
      vertex   2.057971e+02 2.499364e+00 -7.505000e+01
    endloop
  endfacet
  facet normal 9.659258e-01 2.588190e-01 -6.694598e-17
    outer loop
      vertex   8.124051e+01 7.441212e+01 7.505000e+01
      vertex   1.075624e+02 -2.382253e+01 7.505000e+01
      vertex   8.124051e+01 7.441212e+01 -7.505000e+01
    endloop
  endfacet
  facet normal 9.659258e-01 2.588190e-01 -5.957973e-17
    outer loop
      vertex   8.124051e+01 7.441212e+01 -7.505000e+01
      vertex   1.075624e+02 -2.382253e+01 7.505000e+01
      vertex   1.075624e+02 -2.382253e+01 -7.505000e+01
    endloop
  endfacet
  facet normal 2.588190e-01 -9.659258e-01 -2.319077e-16
    outer loop
      vertex   1.794752e+02 1.007340e+02 7.505000e+01
      vertex   8.124051e+01 7.441212e+01 7.505000e+01
      vertex   1.794752e+02 1.007340e+02 -7.505000e+01
    endloop
  endfacet
  facet normal 2.588190e-01 -9.659258e-01 -1.191595e-16
    outer loop
      vertex   1.794752e+02 1.007340e+02 -7.505000e+01
      vertex   8.124051e+01 7.441212e+01 7.505000e+01
      vertex   8.124051e+01 7.441212e+01 -7.505000e+01
    endloop
  endfacet
  facet normal -2.588190e-01 9.659258e-01 1.389763e-16
    outer loop
      vertex   1.797580e+02 1.012239e+02 -7.585000e+01
      vertex   8.075062e+01 7.469497e+01 -7.585000e+01
      vertex   1.797580e+02 1.012239e+02 7.585000e+01
    endloop
  endfacet
  facet normal -2.588190e-01 9.659258e-01 0.000000e+00
    outer loop
      vertex   1.797580e+02 1.012239e+02 7.585000e+01
      vertex   8.075062e+01 7.469497e+01 -7.585000e+01
      vertex   8.075062e+01 7.469497e+01 7.585000e+01
    endloop
  endfacet
  facet normal 9.659258e-01 2.588190e-01 2.424548e-17
    outer loop
      vertex   2.062870e+02 2.216521e+00 -7.585000e+01
      vertex   1.797580e+02 1.012239e+02 -7.585000e+01
      vertex   2.062870e+02 2.216521e+00 7.585000e+01
    endloop
  endfacet
  facet normal 9.659258e-01 2.588190e-01 -1.462281e-16
    outer loop
      vertex   2.062870e+02 2.216521e+00 7.585000e+01
      vertex   1.797580e+02 1.012239e+02 -7.585000e+01
      vertex   1.797580e+02 1.012239e+02 7.585000e+01
    endloop
  endfacet
  facet normal 2.588190e-01 -9.659258e-01 -9.048538e-17
    outer loop
      vertex   1.072796e+02 -2.431243e+01 -7.585000e+01
      vertex   2.062870e+02 2.216521e+00 -7.585000e+01
      vertex   1.072796e+02 -2.431243e+01 7.585000e+01
    endloop
  endfacet
  facet normal 2.588190e-01 -9.659258e-01 -8.773684e-17
    outer loop
      vertex   1.072796e+02 -2.431243e+01 7.585000e+01
      vertex   2.062870e+02 2.216521e+00 -7.585000e+01
      vertex   2.062870e+02 2.216521e+00 7.585000e+01
    endloop
  endfacet
  facet normal -9.659258e-01 -2.588190e-01 0.000000e+00
    outer loop
      vertex   8.075062e+01 7.469497e+01 -7.585000e+01
      vertex   1.072796e+02 -2.431243e+01 -7.585000e+01
      vertex   8.075062e+01 7.469497e+01 7.585000e+01
    endloop
  endfacet
  facet normal -9.659258e-01 -2.588190e-01 -2.924561e-17
    outer loop
      vertex   8.075062e+01 7.469497e+01 7.585000e+01
      vertex   1.072796e+02 -2.431243e+01 -7.585000e+01
      vertex   1.072796e+02 -2.431243e+01 7.585000e+01
    endloop
  endfacet
  facet normal 0.000000e+00 0.000000e+00 -1.000000e+00
    outer loop
      vertex   1.072796e+02 -2.431243e+01 -7.585000e+01
      vertex   8.075062e+01 7.469497e+01 -7.585000e+01
      vertex   2.062870e+02 2.216521e+00 -7.585000e+01
    endloop
  endfacet
  facet normal 0.000000e+00 0.000000e+00 -1.000000e+00
    outer loop
      vertex   2.062870e+02 2.216521e+00 -7.585000e+01
      vertex   8.075062e+01 7.469497e+01 -7.585000e+01
      vertex   1.797580e+02 1.012239e+02 -7.585000e+01
    endloop
  endfacet
  facet normal 1.698017e-16 -9.803504e-17 1.000000e+00
    outer loop
      vertex   8.075062e+01 7.469497e+01 7.585000e+01
      vertex   1.072796e+02 -2.431243e+01 7.585000e+01
      vertex   1.797580e+02 1.012239e+02 7.585000e+01
    endloop
  endfacet
  facet normal 0.000000e+00 0.000000e+00 1.000000e+00
    outer loop
      vertex   1.797580e+02 1.012239e+02 7.585000e+01
      vertex   1.072796e+02 -2.431243e+01 7.585000e+01
      vertex   2.062870e+02 2.216521e+00 7.585000e+01
    endloop
  endfacet
endsolid
