solid ASCII
  facet normal 0.000000e+00 -0.000000e+00 -1.000000e+00
    outer loop
      vertex   4.234094e+01 1.564730e+02 7.505000e+01
      vertex   1.405756e+02 1.301512e+02 7.505000e+01
      vertex   1.601904e+01 5.823839e+01 7.505000e+01
    endloop
  endfacet
  facet normal 0.000000e+00 0.000000e+00 -1.000000e+00
    outer loop
      vertex   1.601904e+01 5.823839e+01 7.505000e+01
      vertex   1.405756e+02 1.301512e+02 7.505000e+01
      vertex   1.142537e+02 3.191650e+01 7.505000e+01
    endloop
  endfacet
  facet normal 0.000000e+00 0.000000e+00 1.000000e+00
    outer loop
      vertex   1.405756e+02 1.301512e+02 -7.505000e+01
      vertex   4.234094e+01 1.564730e+02 -7.505000e+01
      vertex   1.142537e+02 3.191650e+01 -7.505000e+01
    endloop
  endfacet
  facet normal 0.000000e+00 0.000000e+00 1.000000e+00
    outer loop
      vertex   1.142537e+02 3.191650e+01 -7.505000e+01
      vertex   4.234094e+01 1.564730e+02 -7.505000e+01
      vertex   1.601904e+01 5.823839e+01 -7.505000e+01
    endloop
  endfacet
  facet normal -2.588190e-01 -9.659258e-01 -0.000000e+00
    outer loop
      vertex   1.405756e+02 1.301512e+02 7.505000e+01
      vertex   4.234094e+01 1.564730e+02 7.505000e+01
      vertex   1.405756e+02 1.301512e+02 -7.505000e+01
    endloop
  endfacet
  facet normal -2.588190e-01 -9.659258e-01 0.000000e+00
    outer loop
      vertex   1.405756e+02 1.301512e+02 -7.505000e+01
      vertex   4.234094e+01 1.564730e+02 7.505000e+01
      vertex   4.234094e+01 1.564730e+02 -7.505000e+01
    endloop
  endfacet
  facet normal -9.659258e-01 2.588190e-01 0.000000e+00
    outer loop
      vertex   1.142537e+02 3.191650e+01 7.505000e+01
      vertex   1.405756e+02 1.301512e+02 7.505000e+01
      vertex   1.142537e+02 3.191650e+01 -7.505000e+01
    endloop
  endfacet
  facet normal -9.659258e-01 2.588190e-01 0.000000e+00
    outer loop
      vertex   1.142537e+02 3.191650e+01 -7.505000e+01
      vertex   1.405756e+02 1.301512e+02 7.505000e+01
      vertex   1.405756e+02 1.301512e+02 -7.505000e+01
    endloop
  endfacet
  facet normal 2.588190e-01 9.659258e-01 -1.225196e-17
    outer loop
      vertex   1.601904e+01 5.823839e+01 7.505000e+01
      vertex   1.142537e+02 3.191650e+01 7.505000e+01
      vertex   1.601904e+01 5.823839e+01 -7.505000e+01
    endloop
  endfacet
  facet normal 2.588190e-01 9.659258e-01 0.000000e+00
    outer loop
      vertex   1.601904e+01 5.823839e+01 -7.505000e+01
      vertex   1.142537e+02 3.191650e+01 7.505000e+01
      vertex   1.142537e+02 3.191650e+01 -7.505000e+01
    endloop
  endfacet
  facet normal 9.659258e-01 -2.588190e-01 -4.572496e-17
    outer loop
      vertex   4.234094e+01 1.564730e+02 7.505000e+01
      vertex   1.601904e+01 5.823839e+01 7.505000e+01
      vertex   4.234094e+01 1.564730e+02 -7.505000e+01
    endloop
  endfacet
  facet normal 9.659258e-01 -2.588190e-01 -5.957973e-17
    outer loop
      vertex   4.234094e+01 1.564730e+02 -7.505000e+01
      vertex   1.601904e+01 5.823839e+01 7.505000e+01
      vertex   1.601904e+01 5.823839e+01 -7.505000e+01
    endloop
  endfacet
  facet normal -9.659258e-01 2.588190e-01 4.524269e-17
    outer loop
      vertex   4.205809e+01 1.569629e+02 -7.585000e+01
      vertex   1.552914e+01 5.795555e+01 -7.585000e+01
      vertex   4.205809e+01 1.569629e+02 7.585000e+01
    endloop
  endfacet
  facet normal -9.659258e-01 2.588190e-01 2.924561e-17
    outer loop
      vertex   4.205809e+01 1.569629e+02 7.585000e+01
      vertex   1.552914e+01 5.795555e+01 -7.585000e+01
      vertex   1.552914e+01 5.795555e+01 7.585000e+01
    endloop
  endfacet
  facet normal 2.588190e-01 9.659258e-01 -4.849097e-17
    outer loop
      vertex   1.410655e+02 1.304340e+02 -7.585000e+01
      vertex   4.205809e+01 1.569629e+02 -7.585000e+01
      vertex   1.410655e+02 1.304340e+02 7.585000e+01
    endloop
  endfacet
  facet normal 2.588190e-01 9.659258e-01 -2.924561e-17
    outer loop
      vertex   1.410655e+02 1.304340e+02 7.585000e+01
      vertex   4.205809e+01 1.569629e+02 -7.585000e+01
      vertex   4.205809e+01 1.569629e+02 7.585000e+01
    endloop
  endfacet
  facet normal 9.659258e-01 -2.588190e-01 -9.048538e-17
    outer loop
      vertex   1.145365e+02 3.142660e+01 -7.585000e+01
      vertex   1.410655e+02 1.304340e+02 -7.585000e+01
      vertex   1.145365e+02 3.142660e+01 7.585000e+01
    endloop
  endfacet
  facet normal 9.659258e-01 -2.588190e-01 -1.754737e-16
    outer loop
      vertex   1.145365e+02 3.142660e+01 7.585000e+01
      vertex   1.410655e+02 1.304340e+02 -7.585000e+01
      vertex   1.410655e+02 1.304340e+02 7.585000e+01
    endloop
  endfacet
  facet normal -2.588190e-01 -9.659258e-01 1.212274e-17
    outer loop
      vertex   1.552914e+01 5.795555e+01 -7.585000e+01
      vertex   1.145365e+02 3.142660e+01 -7.585000e+01
      vertex   1.552914e+01 5.795555e+01 7.585000e+01
    endloop
  endfacet
  facet normal -2.588190e-01 -9.659258e-01 0.000000e+00
    outer loop
      vertex   1.552914e+01 5.795555e+01 7.585000e+01
      vertex   1.145365e+02 3.142660e+01 -7.585000e+01
      vertex   1.145365e+02 3.142660e+01 7.585000e+01
    endloop
  endfacet
  facet normal 0.000000e+00 0.000000e+00 -1.000000e+00
    outer loop
      vertex   1.145365e+02 3.142660e+01 -7.585000e+01
      vertex   1.552914e+01 5.795555e+01 -7.585000e+01
      vertex   1.410655e+02 1.304340e+02 -7.585000e+01
    endloop
  endfacet
  facet normal -0.000000e+00 0.000000e+00 -1.000000e+00
    outer loop
      vertex   1.410655e+02 1.304340e+02 -7.585000e+01
      vertex   1.552914e+01 5.795555e+01 -7.585000e+01
      vertex   4.205809e+01 1.569629e+02 -7.585000e+01
    endloop
  endfacet
  facet normal -0.000000e+00 0.000000e+00 1.000000e+00
    outer loop
      vertex   1.552914e+01 5.795555e+01 7.585000e+01
      vertex   1.145365e+02 3.142660e+01 7.585000e+01
      vertex   4.205809e+01 1.569629e+02 7.585000e+01
    endloop
  endfacet
  facet normal 0.000000e+00 0.000000e+00 1.000000e+00
    outer loop
      vertex   4.205809e+01 1.569629e+02 7.585000e+01
      vertex   1.145365e+02 3.142660e+01 7.585000e+01
      vertex   1.410655e+02 1.304340e+02 7.585000e+01
    endloop
  endfacet
  facet normal 0.000000e+00 -0.000000e+00 -1.000000e+00
    outer loop
      vertex   -5.676305e+01 1.830279e+02 7.505000e+01
      vertex   4.147160e+01 1.567060e+02 7.505000e+01
      vertex   -8.308495e+01 8.479323e+01 7.505000e+01
    endloop
  endfacet
  facet normal 0.000000e+00 0.000000e+00 -1.000000e+00
    outer loop
      vertex   -8.308495e+01 8.479323e+01 7.505000e+01
      vertex   4.147160e+01 1.567060e+02 7.505000e+01
      vertex   1.514971e+01 5.847133e+01 7.505000e+01
    endloop
  endfacet
  facet normal 0.000000e+00 0.000000e+00 1.000000e+00
    outer loop
      vertex   4.147160e+01 1.567060e+02 -7.505000e+01
      vertex   -5.676305e+01 1.830279e+02 -7.505000e+01
      vertex   1.514971e+01 5.847133e+01 -7.505000e+01
    endloop
  endfacet
  facet normal 0.000000e+00 0.000000e+00 1.000000e+00
    outer loop
      vertex   1.514971e+01 5.847133e+01 -7.505000e+01
      vertex   -5.676305e+01 1.830279e+02 -7.505000e+01
      vertex   -8.308495e+01 8.479323e+01 -7.505000e+01
    endloop
  endfacet
  facet normal -2.588190e-01 -9.659258e-01 -0.000000e+00
    outer loop
      vertex   4.147160e+01 1.567060e+02 7.505000e+01
      vertex   -5.676305e+01 1.830279e+02 7.505000e+01
      vertex   4.147160e+01 1.567060e+02 -7.505000e+01
    endloop
  endfacet
  facet normal -2.588190e-01 -9.659258e-01 0.000000e+00
    outer loop
      vertex   4.147160e+01 1.567060e+02 -7.505000e+01
      vertex   -5.676305e+01 1.830279e+02 7.505000e+01
      vertex   -5.676305e+01 1.830279e+02 -7.505000e+01
    endloop
  endfacet
  facet normal -9.659258e-01 2.588190e-01 0.000000e+00
    outer loop
      vertex   1.514971e+01 5.847133e+01 7.505000e+01
      vertex   4.147160e+01 1.567060e+02 7.505000e+01
      vertex   1.514971e+01 5.847133e+01 -7.505000e+01
    endloop
  endfacet
  facet normal -9.659258e-01 2.588190e-01 0.000000e+00
    outer loop
      vertex   1.514971e+01 5.847133e+01 -7.505000e+01
      vertex   4.147160e+01 1.567060e+02 7.505000e+01
      vertex   4.147160e+01 1.567060e+02 -7.505000e+01
    endloop
  endfacet
  facet normal 2.588190e-01 9.659258e-01 0.000000e+00
    outer loop
      vertex   -8.308495e+01 8.479323e+01 7.505000e+01
      vertex   1.514971e+01 5.847133e+01 7.505000e+01
      vertex   -8.308495e+01 8.479323e+01 -7.505000e+01
    endloop
  endfacet
  facet normal 2.588190e-01 9.659258e-01 0.000000e+00
    outer loop
      vertex   -8.308495e+01 8.479323e+01 -7.505000e+01
      vertex   1.514971e+01 5.847133e+01 7.505000e+01
      vertex   1.514971e+01 5.847133e+01 -7.505000e+01
    endloop
  endfacet
  facet normal 9.659258e-01 -2.588190e-01 0.000000e+00
    outer loop
      vertex   -5.676305e+01 1.830279e+02 7.505000e+01
      vertex   -8.308495e+01 8.479323e+01 7.505000e+01
      vertex   -5.676305e+01 1.830279e+02 -7.505000e+01
    endloop
  endfacet
  facet normal 9.659258e-01 -2.588190e-01 0.000000e+00
    outer loop
      vertex   -5.676305e+01 1.830279e+02 -7.505000e+01
      vertex   -8.308495e+01 8.479323e+01 7.505000e+01
      vertex   -8.308495e+01 8.479323e+01 -7.505000e+01
    endloop
  endfacet
  facet normal -9.659258e-01 2.588190e-01 0.000000e+00
    outer loop
      vertex   -5.704589e+01 1.835178e+02 -7.585000e+01
      vertex   -8.357485e+01 8.451038e+01 -7.585000e+01
      vertex   -5.704589e+01 1.835178e+02 7.585000e+01
    endloop
  endfacet
  facet normal -9.659258e-01 2.588190e-01 0.000000e+00
    outer loop
      vertex   -5.704589e+01 1.835178e+02 7.585000e+01
      vertex   -8.357485e+01 8.451038e+01 -7.585000e+01
      vertex   -8.357485e+01 8.451038e+01 7.585000e+01
    endloop
  endfacet
  facet normal 2.588190e-01 9.659258e-01 -0.000000e+00
    outer loop
      vertex   4.196150e+01 1.569888e+02 -7.585000e+01
      vertex   -5.704589e+01 1.835178e+02 -7.585000e+01
      vertex   4.196150e+01 1.569888e+02 7.585000e+01
    endloop
  endfacet
  facet normal 2.588190e-01 9.659258e-01 0.000000e+00
    outer loop
      vertex   4.196150e+01 1.569888e+02 7.585000e+01
      vertex   -5.704589e+01 1.835178e+02 -7.585000e+01
      vertex   -5.704589e+01 1.835178e+02 7.585000e+01
    endloop
  endfacet
  facet normal 9.659258e-01 -2.588190e-01 0.000000e+00
    outer loop
      vertex   1.543255e+01 5.798143e+01 -7.585000e+01
      vertex   4.196150e+01 1.569888e+02 -7.585000e+01
      vertex   1.543255e+01 5.798143e+01 7.585000e+01
    endloop
  endfacet
  facet normal 9.659258e-01 -2.588190e-01 0.000000e+00
    outer loop
      vertex   1.543255e+01 5.798143e+01 7.585000e+01
      vertex   4.196150e+01 1.569888e+02 -7.585000e+01
      vertex   4.196150e+01 1.569888e+02 7.585000e+01
    endloop
  endfacet
  facet normal -2.588190e-01 -9.659258e-01 0.000000e+00
    outer loop
      vertex   -8.357485e+01 8.451038e+01 -7.585000e+01
      vertex   1.543255e+01 5.798143e+01 -7.585000e+01
      vertex   -8.357485e+01 8.451038e+01 7.585000e+01
    endloop
  endfacet
  facet normal -2.588190e-01 -9.659258e-01 0.000000e+00
    outer loop
      vertex   -8.357485e+01 8.451038e+01 7.585000e+01
      vertex   1.543255e+01 5.798143e+01 -7.585000e+01
      vertex   1.543255e+01 5.798143e+01 7.585000e+01
    endloop
  endfacet
  facet normal 0.000000e+00 0.000000e+00 -1.000000e+00
    outer loop
      vertex   1.543255e+01 5.798143e+01 -7.585000e+01
      vertex   -8.357485e+01 8.451038e+01 -7.585000e+01
      vertex   4.196150e+01 1.569888e+02 -7.585000e+01
    endloop
  endfacet
  facet normal -0.000000e+00 0.000000e+00 -1.000000e+00
    outer loop
      vertex   4.196150e+01 1.569888e+02 -7.585000e+01
      vertex   -8.357485e+01 8.451038e+01 -7.585000e+01
      vertex   -5.704589e+01 1.835178e+02 -7.585000e+01
    endloop
  endfacet
  facet normal -0.000000e+00 0.000000e+00 1.000000e+00
    outer loop
      vertex   -8.357485e+01 8.451038e+01 7.585000e+01
      vertex   1.543255e+01 5.798143e+01 7.585000e+01
      vertex   -5.704589e+01 1.835178e+02 7.585000e+01
    endloop
  endfacet
  facet normal 0.000000e+00 0.000000e+00 1.000000e+00
    outer loop
      vertex   -5.704589e+01 1.835178e+02 7.585000e+01
      vertex   1.543255e+01 5.798143e+01 7.585000e+01
      vertex   4.196150e+01 1.569888e+02 7.585000e+01
    endloop
  endfacet
  facet normal -1.422049e-15 9.171224e-17 -1.000000e+00
    outer loop
      vertex   -1.266880e+02 9.554487e+01 7.505000e+01
      vertex   -2.845330e+01 6.922297e+01 7.505000e+01
      vertex   -1.530099e+02 -2.689788e+00 7.505000e+01
    endloop
  endfacet
  facet normal -1.422049e-15 9.171224e-17 -1.000000e+00
    outer loop
      vertex   -1.530099e+02 -2.689788e+00 7.505000e+01
      vertex   -2.845330e+01 6.922297e+01 7.505000e+01
      vertex   -5.477520e+01 -2.901169e+01 7.505000e+01
    endloop
  endfacet
  facet normal 1.764324e-15 1.059002e-16 1.000000e+00
    outer loop
      vertex   -2.845330e+01 6.922297e+01 -7.505000e+01
      vertex   -1.266880e+02 9.554487e+01 -7.505000e+01
      vertex   -5.477520e+01 -2.901169e+01 -7.505000e+01
    endloop
  endfacet
  facet normal 1.422049e-15 -9.171224e-17 1.000000e+00
    outer loop
      vertex   -5.477520e+01 -2.901169e+01 -7.505000e+01
      vertex   -1.266880e+02 9.554487e+01 -7.505000e+01
      vertex   -1.530099e+02 -2.689788e+00 -7.505000e+01
    endloop
  endfacet
  facet normal -2.588190e-01 -9.659258e-01 3.675589e-16
    outer loop
      vertex   -2.845330e+01 6.922297e+01 7.505000e+01
      vertex   -1.266880e+02 9.554487e+01 7.505000e+01
      vertex   -2.845330e+01 6.922297e+01 -7.505000e+01
    endloop
  endfacet
  facet normal -2.588190e-01 -9.659258e-01 3.574784e-16
    outer loop
      vertex   -2.845330e+01 6.922297e+01 -7.505000e+01
      vertex   -1.266880e+02 9.554487e+01 7.505000e+01
      vertex   -1.266880e+02 9.554487e+01 -7.505000e+01
    endloop
  endfacet
  facet normal -9.659258e-01 2.588190e-01 1.371749e-15
    outer loop
      vertex   -5.477520e+01 -2.901169e+01 7.505000e+01
      vertex   -2.845330e+01 6.922297e+01 7.505000e+01
      vertex   -5.477520e+01 -2.901169e+01 -7.505000e+01
    endloop
  endfacet
  facet normal -9.659258e-01 2.588190e-01 1.370334e-15
    outer loop
      vertex   -5.477520e+01 -2.901169e+01 -7.505000e+01
      vertex   -2.845330e+01 6.922297e+01 7.505000e+01
      vertex   -2.845330e+01 6.922297e+01 -7.505000e+01
    endloop
  endfacet
  facet normal 2.588190e-01 9.659258e-01 -3.920629e-16
    outer loop
      vertex   -1.530099e+02 -2.689788e+00 7.505000e+01
      vertex   -5.477520e+01 -2.901169e+01 7.505000e+01
      vertex   -1.530099e+02 -2.689788e+00 -7.505000e+01
    endloop
  endfacet
  facet normal 2.588190e-01 9.659258e-01 -3.872682e-16
    outer loop
      vertex   -1.530099e+02 -2.689788e+00 -7.505000e+01
      vertex   -5.477520e+01 -2.901169e+01 7.505000e+01
      vertex   -5.477520e+01 -2.901169e+01 -7.505000e+01
    endloop
  endfacet
  facet normal 9.659258e-01 -2.588190e-01 -1.280299e-15
    outer loop
      vertex   -1.266880e+02 9.554487e+01 7.505000e+01
      vertex   -1.530099e+02 -2.689788e+00 7.505000e+01
      vertex   -1.266880e+02 9.554487e+01 -7.505000e+01
    endloop
  endfacet
  facet normal 9.659258e-01 -2.588190e-01 -1.459703e-15
    outer loop
      vertex   -1.266880e+02 9.554487e+01 -7.505000e+01
      vertex   -1.530099e+02 -2.689788e+00 7.505000e+01
      vertex   -1.530099e+02 -2.689788e+00 -7.505000e+01
    endloop
  endfacet
  facet normal -9.659258e-01 2.588190e-01 1.357281e-15
    outer loop
      vertex   -1.269708e+02 9.603477e+01 -7.585000e+01
      vertex   -1.534998e+02 -2.972631e+00 -7.585000e+01
      vertex   -1.269708e+02 9.603477e+01 7.585000e+01
    endloop
  endfacet
  facet normal -9.659258e-01 2.588190e-01 1.462281e-15
    outer loop
      vertex   -1.269708e+02 9.603477e+01 7.585000e+01
      vertex   -1.534998e+02 -2.972631e+00 -7.585000e+01
      vertex   -1.534998e+02 -2.972631e+00 7.585000e+01
    endloop
  endfacet
  facet normal 2.588190e-01 9.659258e-01 -3.636823e-16
    outer loop
      vertex   -2.796340e+01 6.950581e+01 -7.585000e+01
      vertex   -1.269708e+02 9.603477e+01 -7.585000e+01
      vertex   -2.796340e+01 6.950581e+01 7.585000e+01
    endloop
  endfacet
  facet normal 2.588190e-01 9.659258e-01 -4.094386e-16
    outer loop
      vertex   -2.796340e+01 6.950581e+01 7.585000e+01
      vertex   -1.269708e+02 9.603477e+01 -7.585000e+01
      vertex   -1.269708e+02 9.603477e+01 7.585000e+01
    endloop
  endfacet
  facet normal 9.659258e-01 -2.588190e-01 -1.357281e-15
    outer loop
      vertex   -5.449235e+01 -2.950158e+01 -7.585000e+01
      vertex   -2.796340e+01 6.950581e+01 -7.585000e+01
      vertex   -5.449235e+01 -2.950158e+01 7.585000e+01
    endloop
  endfacet
  facet normal 9.659258e-01 -2.588190e-01 -1.374544e-15
    outer loop
      vertex   -5.449235e+01 -2.950158e+01 7.585000e+01
      vertex   -2.796340e+01 6.950581e+01 -7.585000e+01
      vertex   -2.796340e+01 6.950581e+01 7.585000e+01
    endloop
  endfacet
  facet normal -2.588190e-01 -9.659258e-01 3.879277e-16
    outer loop
      vertex   -1.534998e+02 -2.972631e+00 -7.585000e+01
      vertex   -5.449235e+01 -2.950158e+01 -7.585000e+01
      vertex   -1.534998e+02 -2.972631e+00 7.585000e+01
    endloop
  endfacet
  facet normal -2.588190e-01 -9.659258e-01 3.801930e-16
    outer loop
      vertex   -1.534998e+02 -2.972631e+00 7.585000e+01
      vertex   -5.449235e+01 -2.950158e+01 -7.585000e+01
      vertex   -5.449235e+01 -2.950158e+01 7.585000e+01
    endloop
  endfacet
  facet normal -1.410950e-15 9.099644e-17 -1.000000e+00
    outer loop
      vertex   -5.449235e+01 -2.950158e+01 -7.585000e+01
      vertex   -1.534998e+02 -2.972631e+00 -7.585000e+01
      vertex   -2.796340e+01 6.950581e+01 -7.585000e+01
    endloop
  endfacet
  facet normal -1.410950e-15 9.099644e-17 -1.000000e+00
    outer loop
      vertex   -2.796340e+01 6.950581e+01 -7.585000e+01
      vertex   -1.534998e+02 -2.972631e+00 -7.585000e+01
      vertex   -1.269708e+02 9.603477e+01 -7.585000e+01
    endloop
  endfacet
  facet normal 1.277032e-15 -5.511313e-17 1.000000e+00
    outer loop
      vertex   -1.534998e+02 -2.972631e+00 7.585000e+01
      vertex   -5.449235e+01 -2.950158e+01 7.585000e+01
      vertex   -1.269708e+02 9.603477e+01 7.585000e+01
    endloop
  endfacet
  facet normal 1.446834e-15 4.292191e-17 1.000000e+00
    outer loop
      vertex   -1.269708e+02 9.603477e+01 7.585000e+01
      vertex   -5.449235e+01 -2.950158e+01 7.585000e+01
      vertex   -2.796340e+01 6.950581e+01 7.585000e+01
    endloop
  endfacet
  facet normal 0.000000e+00 -0.000000e+00 -1.000000e+00
    outer loop
      vertex   6.891202e+01 4.313401e+01 7.505000e+01
      vertex   1.671467e+02 1.681211e+01 7.505000e+01
      vertex   4.259013e+01 -5.510064e+01 7.505000e+01
    endloop
  endfacet
  facet normal 0.000000e+00 0.000000e+00 -1.000000e+00
    outer loop
      vertex   4.259013e+01 -5.510064e+01 7.505000e+01
      vertex   1.671467e+02 1.681211e+01 7.505000e+01
      vertex   1.408248e+02 -8.142254e+01 7.505000e+01
    endloop
  endfacet
  facet normal 0.000000e+00 0.000000e+00 1.000000e+00
    outer loop
      vertex   1.671467e+02 1.681211e+01 -7.505000e+01
      vertex   6.891202e+01 4.313401e+01 -7.505000e+01
      vertex   1.408248e+02 -8.142254e+01 -7.505000e+01
    endloop
  endfacet
  facet normal 0.000000e+00 0.000000e+00 1.000000e+00
    outer loop
      vertex   1.408248e+02 -8.142254e+01 -7.505000e+01
      vertex   6.891202e+01 4.313401e+01 -7.505000e+01
      vertex   4.259013e+01 -5.510064e+01 -7.505000e+01
    endloop
  endfacet
  facet normal -2.588190e-01 -9.659258e-01 4.900786e-17
    outer loop
      vertex   1.671467e+02 1.681211e+01 7.505000e+01
      vertex   6.891202e+01 4.313401e+01 7.505000e+01
      vertex   1.671467e+02 1.681211e+01 -7.505000e+01
    endloop
  endfacet
  facet normal -2.588190e-01 -9.659258e-01 2.978986e-17
    outer loop
      vertex   1.671467e+02 1.681211e+01 -7.505000e+01
      vertex   6.891202e+01 4.313401e+01 7.505000e+01
      vertex   6.891202e+01 4.313401e+01 -7.505000e+01
    endloop
  endfacet
  facet normal -9.659258e-01 2.588190e-01 0.000000e+00
    outer loop
      vertex   1.408248e+02 -8.142254e+01 7.505000e+01
      vertex   1.671467e+02 1.681211e+01 7.505000e+01
      vertex   1.408248e+02 -8.142254e+01 -7.505000e+01
    endloop
  endfacet
  facet normal -9.659258e-01 2.588190e-01 1.787392e-16
    outer loop
      vertex   1.408248e+02 -8.142254e+01 -7.505000e+01
      vertex   1.671467e+02 1.681211e+01 7.505000e+01
      vertex   1.671467e+02 1.681211e+01 -7.505000e+01
    endloop
  endfacet
  facet normal 2.588190e-01 9.659258e-01 -1.225196e-17
    outer loop
      vertex   4.259013e+01 -5.510064e+01 7.505000e+01
      vertex   1.408248e+02 -8.142254e+01 7.505000e+01
      vertex   4.259013e+01 -5.510064e+01 -7.505000e+01
    endloop
  endfacet
  facet normal 2.588190e-01 9.659258e-01 0.000000e+00
    outer loop
      vertex   4.259013e+01 -5.510064e+01 -7.505000e+01
      vertex   1.408248e+02 -8.142254e+01 7.505000e+01
      vertex   1.408248e+02 -8.142254e+01 -7.505000e+01
    endloop
  endfacet
  facet normal 9.659258e-01 -2.588190e-01 -9.144991e-17
    outer loop
      vertex   6.891202e+01 4.313401e+01 7.505000e+01
      vertex   4.259013e+01 -5.510064e+01 7.505000e+01
      vertex   6.891202e+01 4.313401e+01 -7.505000e+01
    endloop
  endfacet
  facet normal 9.659258e-01 -2.588190e-01 -5.957973e-17
    outer loop
      vertex   6.891202e+01 4.313401e+01 -7.505000e+01
      vertex   4.259013e+01 -5.510064e+01 7.505000e+01
      vertex   4.259013e+01 -5.510064e+01 -7.505000e+01
    endloop
  endfacet
  facet normal -9.659258e-01 2.588190e-01 9.048538e-17
    outer loop
      vertex   6.862918e+01 4.362391e+01 -7.585000e+01
      vertex   4.210023e+01 -5.538349e+01 -7.585000e+01
      vertex   6.862918e+01 4.362391e+01 7.585000e+01
    endloop
  endfacet
  facet normal -9.659258e-01 2.588190e-01 2.924561e-17
    outer loop
      vertex   6.862918e+01 4.362391e+01 7.585000e+01
      vertex   4.210023e+01 -5.538349e+01 -7.585000e+01
      vertex   4.210023e+01 -5.538349e+01 7.585000e+01
    endloop
  endfacet
  facet normal 2.588190e-01 9.659258e-01 -0.000000e+00
    outer loop
      vertex   1.676366e+02 1.709496e+01 -7.585000e+01
      vertex   6.862918e+01 4.362391e+01 -7.585000e+01
      vertex   1.676366e+02 1.709496e+01 7.585000e+01
    endloop
  endfacet
  facet normal 2.588190e-01 9.659258e-01 -2.924561e-17
    outer loop
      vertex   1.676366e+02 1.709496e+01 7.585000e+01
      vertex   6.862918e+01 4.362391e+01 -7.585000e+01
      vertex   6.862918e+01 4.362391e+01 7.585000e+01
    endloop
  endfacet
  facet normal 9.659258e-01 -2.588190e-01 0.000000e+00
    outer loop
      vertex   1.411076e+02 -8.191244e+01 -7.585000e+01
      vertex   1.676366e+02 1.709496e+01 -7.585000e+01
      vertex   1.411076e+02 -8.191244e+01 7.585000e+01
    endloop
  endfacet
  facet normal 9.659258e-01 -2.588190e-01 0.000000e+00
    outer loop
      vertex   1.411076e+02 -8.191244e+01 7.585000e+01
      vertex   1.676366e+02 1.709496e+01 -7.585000e+01
      vertex   1.676366e+02 1.709496e+01 7.585000e+01
    endloop
  endfacet
  facet normal -2.588190e-01 -9.659258e-01 1.212274e-17
    outer loop
      vertex   4.210023e+01 -5.538349e+01 -7.585000e+01
      vertex   1.411076e+02 -8.191244e+01 -7.585000e+01
      vertex   4.210023e+01 -5.538349e+01 7.585000e+01
    endloop
  endfacet
  facet normal -2.588190e-01 -9.659258e-01 0.000000e+00
    outer loop
      vertex   4.210023e+01 -5.538349e+01 7.585000e+01
      vertex   1.411076e+02 -8.191244e+01 -7.585000e+01
      vertex   1.411076e+02 -8.191244e+01 7.585000e+01
    endloop
  endfacet
  facet normal 0.000000e+00 0.000000e+00 -1.000000e+00
    outer loop
      vertex   1.411076e+02 -8.191244e+01 -7.585000e+01
      vertex   4.210023e+01 -5.538349e+01 -7.585000e+01
      vertex   1.676366e+02 1.709496e+01 -7.585000e+01
    endloop
  endfacet
  facet normal -0.000000e+00 0.000000e+00 -1.000000e+00
    outer loop
      vertex   1.676366e+02 1.709496e+01 -7.585000e+01
      vertex   4.210023e+01 -5.538349e+01 -7.585000e+01
      vertex   6.862918e+01 4.362391e+01 -7.585000e+01
    endloop
  endfacet
  facet normal 1.698017e-16 9.803504e-17 1.000000e+00
    outer loop
      vertex   4.210023e+01 -5.538349e+01 7.585000e+01
      vertex   1.411076e+02 -8.191244e+01 7.585000e+01
      vertex   6.862918e+01 4.362391e+01 7.585000e+01
    endloop
  endfacet
  facet normal 0.000000e+00 0.000000e+00 1.000000e+00
    outer loop
      vertex   6.862918e+01 4.362391e+01 7.585000e+01
      vertex   1.411076e+02 -8.191244e+01 7.585000e+01
      vertex   1.676366e+02 1.709496e+01 7.585000e+01
    endloop
  endfacet
  facet normal 0.000000e+00 -0.000000e+00 -1.000000e+00
    outer loop
      vertex   -1.147023e+02 -1.388600e+01 7.505000e+01
      vertex   -1.646769e+01 -4.020790e+01 7.505000e+01
      vertex   -1.410242e+02 -1.121207e+02 7.505000e+01
    endloop
  endfacet
  facet normal 0.000000e+00 0.000000e+00 -1.000000e+00
    outer loop
      vertex   -1.410242e+02 -1.121207e+02 7.505000e+01
      vertex   -1.646769e+01 -4.020790e+01 7.505000e+01
      vertex   -4.278959e+01 -1.384426e+02 7.505000e+01
    endloop
  endfacet
  facet normal 0.000000e+00 0.000000e+00 1.000000e+00
    outer loop
      vertex   -1.646769e+01 -4.020790e+01 -7.505000e+01
      vertex   -1.147023e+02 -1.388600e+01 -7.505000e+01
      vertex   -4.278959e+01 -1.384426e+02 -7.505000e+01
    endloop
  endfacet
  facet normal 0.000000e+00 0.000000e+00 1.000000e+00
    outer loop
      vertex   -4.278959e+01 -1.384426e+02 -7.505000e+01
      vertex   -1.147023e+02 -1.388600e+01 -7.505000e+01
      vertex   -1.410242e+02 -1.121207e+02 -7.505000e+01
    endloop
  endfacet
  facet normal -2.588190e-01 -9.659258e-01 -0.000000e+00
    outer loop
      vertex   -1.646769e+01 -4.020790e+01 7.505000e+01
      vertex   -1.147023e+02 -1.388600e+01 7.505000e+01
      vertex   -1.646769e+01 -4.020790e+01 -7.505000e+01
    endloop
  endfacet
  facet normal -2.588190e-01 -9.659258e-01 0.000000e+00
    outer loop
      vertex   -1.646769e+01 -4.020790e+01 -7.505000e+01
      vertex   -1.147023e+02 -1.388600e+01 7.505000e+01
      vertex   -1.147023e+02 -1.388600e+01 -7.505000e+01
    endloop
  endfacet
  facet normal -9.659258e-01 2.588190e-01 4.572496e-17
    outer loop
      vertex   -4.278959e+01 -1.384426e+02 7.505000e+01
      vertex   -1.646769e+01 -4.020790e+01 7.505000e+01
      vertex   -4.278959e+01 -1.384426e+02 -7.505000e+01
    endloop
  endfacet
  facet normal -9.659258e-01 2.588190e-01 0.000000e+00
    outer loop
      vertex   -4.278959e+01 -1.384426e+02 -7.505000e+01
      vertex   -1.646769e+01 -4.020790e+01 7.505000e+01
      vertex   -1.646769e+01 -4.020790e+01 -7.505000e+01
    endloop
  endfacet
  facet normal 2.588190e-01 9.659258e-01 0.000000e+00
    outer loop
      vertex   -1.410242e+02 -1.121207e+02 7.505000e+01
      vertex   -4.278959e+01 -1.384426e+02 7.505000e+01
      vertex   -1.410242e+02 -1.121207e+02 -7.505000e+01
    endloop
  endfacet
  facet normal 2.588190e-01 9.659258e-01 -2.978986e-17
    outer loop
      vertex   -1.410242e+02 -1.121207e+02 -7.505000e+01
      vertex   -4.278959e+01 -1.384426e+02 7.505000e+01
      vertex   -4.278959e+01 -1.384426e+02 -7.505000e+01
    endloop
  endfacet
  facet normal 9.659258e-01 -2.588190e-01 -9.144991e-17
    outer loop
      vertex   -1.147023e+02 -1.388600e+01 7.505000e+01
      vertex   -1.410242e+02 -1.121207e+02 7.505000e+01
      vertex   -1.147023e+02 -1.388600e+01 -7.505000e+01
    endloop
  endfacet
  facet normal 9.659258e-01 -2.588190e-01 0.000000e+00
    outer loop
      vertex   -1.147023e+02 -1.388600e+01 -7.505000e+01
      vertex   -1.410242e+02 -1.121207e+02 7.505000e+01
      vertex   -1.410242e+02 -1.121207e+02 -7.505000e+01
    endloop
  endfacet
  facet normal -9.659258e-01 2.588190e-01 0.000000e+00
    outer loop
      vertex   -1.149852e+02 -1.339610e+01 -7.585000e+01
      vertex   -1.415141e+02 -1.124035e+02 -7.585000e+01
      vertex   -1.149852e+02 -1.339610e+01 7.585000e+01
    endloop
  endfacet
  facet normal -9.659258e-01 2.588190e-01 0.000000e+00
    outer loop
      vertex   -1.149852e+02 -1.339610e+01 7.585000e+01
      vertex   -1.415141e+02 -1.124035e+02 -7.585000e+01
      vertex   -1.415141e+02 -1.124035e+02 7.585000e+01
    endloop
  endfacet
  facet normal 2.588190e-01 9.659258e-01 -0.000000e+00
    outer loop
      vertex   -1.597779e+01 -3.992506e+01 -7.585000e+01
      vertex   -1.149852e+02 -1.339610e+01 -7.585000e+01
      vertex   -1.597779e+01 -3.992506e+01 7.585000e+01
    endloop
  endfacet
  facet normal 2.588190e-01 9.659258e-01 0.000000e+00
    outer loop
      vertex   -1.597779e+01 -3.992506e+01 7.585000e+01
      vertex   -1.149852e+02 -1.339610e+01 -7.585000e+01
      vertex   -1.149852e+02 -1.339610e+01 7.585000e+01
    endloop
  endfacet
  facet normal 9.659258e-01 -2.588190e-01 -4.524269e-17
    outer loop
      vertex   -4.250675e+01 -1.389325e+02 -7.585000e+01
      vertex   -1.597779e+01 -3.992506e+01 -7.585000e+01
      vertex   -4.250675e+01 -1.389325e+02 7.585000e+01
    endloop
  endfacet
  facet normal 9.659258e-01 -2.588190e-01 0.000000e+00
    outer loop
      vertex   -4.250675e+01 -1.389325e+02 7.585000e+01
      vertex   -1.597779e+01 -3.992506e+01 -7.585000e+01
      vertex   -1.597779e+01 -3.992506e+01 7.585000e+01
    endloop
  endfacet
  facet normal -2.588190e-01 -9.659258e-01 0.000000e+00
    outer loop
      vertex   -1.415141e+02 -1.124035e+02 -7.585000e+01
      vertex   -4.250675e+01 -1.389325e+02 -7.585000e+01
      vertex   -1.415141e+02 -1.124035e+02 7.585000e+01
    endloop
  endfacet
  facet normal -2.588190e-01 -9.659258e-01 0.000000e+00
    outer loop
      vertex   -1.415141e+02 -1.124035e+02 7.585000e+01
      vertex   -4.250675e+01 -1.389325e+02 -7.585000e+01
      vertex   -4.250675e+01 -1.389325e+02 7.585000e+01
    endloop
  endfacet
  facet normal 0.000000e+00 0.000000e+00 -1.000000e+00
    outer loop
      vertex   -4.250675e+01 -1.389325e+02 -7.585000e+01
      vertex   -1.415141e+02 -1.124035e+02 -7.585000e+01
      vertex   -1.597779e+01 -3.992506e+01 -7.585000e+01
    endloop
  endfacet
  facet normal -0.000000e+00 0.000000e+00 -1.000000e+00
    outer loop
      vertex   -1.597779e+01 -3.992506e+01 -7.585000e+01
      vertex   -1.415141e+02 -1.124035e+02 -7.585000e+01
      vertex   -1.149852e+02 -1.339610e+01 -7.585000e+01
    endloop
  endfacet
  facet normal -0.000000e+00 0.000000e+00 1.000000e+00
    outer loop
      vertex   -1.415141e+02 -1.124035e+02 7.585000e+01
      vertex   -4.250675e+01 -1.389325e+02 7.585000e+01
      vertex   -1.149852e+02 -1.339610e+01 7.585000e+01
    endloop
  endfacet
  facet normal 0.000000e+00 0.000000e+00 1.000000e+00
    outer loop
      vertex   -1.149852e+02 -1.339610e+01 7.585000e+01
      vertex   -4.250675e+01 -1.389325e+02 7.585000e+01
      vertex   -1.597779e+01 -3.992506e+01 7.585000e+01
    endloop
  endfacet
  facet normal 0.000000e+00 -0.000000e+00 -1.000000e+00
    outer loop
      vertex   -5.939101e+00 -4.302903e+01 7.505000e+01
      vertex   9.229556e+01 -6.935092e+01 7.505000e+01
      vertex   -3.226100e+01 -1.412637e+02 7.505000e+01
    endloop
  endfacet
  facet normal 0.000000e+00 0.000000e+00 -1.000000e+00
    outer loop
      vertex   -3.226100e+01 -1.412637e+02 7.505000e+01
      vertex   9.229556e+01 -6.935092e+01 7.505000e+01
      vertex   6.597366e+01 -1.675856e+02 7.505000e+01
    endloop
  endfacet
  facet normal 0.000000e+00 0.000000e+00 1.000000e+00
    outer loop
      vertex   9.229556e+01 -6.935092e+01 -7.505000e+01
      vertex   -5.939101e+00 -4.302903e+01 -7.505000e+01
      vertex   6.597366e+01 -1.675856e+02 -7.505000e+01
    endloop
  endfacet
  facet normal 0.000000e+00 0.000000e+00 1.000000e+00
    outer loop
      vertex   6.597366e+01 -1.675856e+02 -7.505000e+01
      vertex   -5.939101e+00 -4.302903e+01 -7.505000e+01
      vertex   -3.226100e+01 -1.412637e+02 -7.505000e+01
    endloop
  endfacet
  facet normal -2.588190e-01 -9.659258e-01 2.450393e-17
    outer loop
      vertex   9.229556e+01 -6.935092e+01 7.505000e+01
      vertex   -5.939101e+00 -4.302903e+01 7.505000e+01
      vertex   9.229556e+01 -6.935092e+01 -7.505000e+01
    endloop
  endfacet
  facet normal -2.588190e-01 -9.659258e-01 0.000000e+00
    outer loop
      vertex   9.229556e+01 -6.935092e+01 -7.505000e+01
      vertex   -5.939101e+00 -4.302903e+01 7.505000e+01
      vertex   -5.939101e+00 -4.302903e+01 -7.505000e+01
    endloop
  endfacet
  facet normal -9.659258e-01 2.588190e-01 9.144991e-17
    outer loop
      vertex   6.597366e+01 -1.675856e+02 7.505000e+01
      vertex   9.229556e+01 -6.935092e+01 7.505000e+01
      vertex   6.597366e+01 -1.675856e+02 -7.505000e+01
    endloop
  endfacet
  facet normal -9.659258e-01 2.588190e-01 8.936959e-17
    outer loop
      vertex   6.597366e+01 -1.675856e+02 -7.505000e+01
      vertex   9.229556e+01 -6.935092e+01 7.505000e+01
      vertex   9.229556e+01 -6.935092e+01 -7.505000e+01
    endloop
  endfacet
  facet normal 2.588190e-01 9.659258e-01 -1.225196e-17
    outer loop
      vertex   -3.226100e+01 -1.412637e+02 7.505000e+01
      vertex   6.597366e+01 -1.675856e+02 7.505000e+01
      vertex   -3.226100e+01 -1.412637e+02 -7.505000e+01
    endloop
  endfacet
  facet normal 2.588190e-01 9.659258e-01 -5.957973e-17
    outer loop
      vertex   -3.226100e+01 -1.412637e+02 -7.505000e+01
      vertex   6.597366e+01 -1.675856e+02 7.505000e+01
      vertex   6.597366e+01 -1.675856e+02 -7.505000e+01
    endloop
  endfacet
  facet normal 9.659258e-01 -2.588190e-01 -4.572496e-17
    outer loop
      vertex   -5.939101e+00 -4.302903e+01 7.505000e+01
      vertex   -3.226100e+01 -1.412637e+02 7.505000e+01
      vertex   -5.939101e+00 -4.302903e+01 -7.505000e+01
    endloop
  endfacet
  facet normal 9.659258e-01 -2.588190e-01 -2.978986e-17
    outer loop
      vertex   -5.939101e+00 -4.302903e+01 -7.505000e+01
      vertex   -3.226100e+01 -1.412637e+02 7.505000e+01
      vertex   -3.226100e+01 -1.412637e+02 -7.505000e+01
    endloop
  endfacet
  facet normal -9.659258e-01 2.588190e-01 4.524269e-17
    outer loop
      vertex   -6.221944e+00 -4.253913e+01 -7.585000e+01
      vertex   -3.275090e+01 -1.415465e+02 -7.585000e+01
      vertex   -6.221944e+00 -4.253913e+01 7.585000e+01
    endloop
  endfacet
  facet normal -9.659258e-01 2.588190e-01 2.924561e-17
    outer loop
      vertex   -6.221944e+00 -4.253913e+01 7.585000e+01
      vertex   -3.275090e+01 -1.415465e+02 -7.585000e+01
      vertex   -3.275090e+01 -1.415465e+02 7.585000e+01
    endloop
  endfacet
  facet normal 2.588190e-01 9.659258e-01 -0.000000e+00
    outer loop
      vertex   9.278545e+01 -6.906808e+01 -7.585000e+01
      vertex   -6.221944e+00 -4.253913e+01 -7.585000e+01
      vertex   9.278545e+01 -6.906808e+01 7.585000e+01
    endloop
  endfacet
  facet normal 2.588190e-01 9.659258e-01 -2.924561e-17
    outer loop
      vertex   9.278545e+01 -6.906808e+01 7.585000e+01
      vertex   -6.221944e+00 -4.253913e+01 -7.585000e+01
      vertex   -6.221944e+00 -4.253913e+01 7.585000e+01
    endloop
  endfacet
  facet normal 9.659258e-01 -2.588190e-01 0.000000e+00
    outer loop
      vertex   6.625650e+01 -1.680755e+02 -7.585000e+01
      vertex   9.278545e+01 -6.906808e+01 -7.585000e+01
      vertex   6.625650e+01 -1.680755e+02 7.585000e+01
    endloop
  endfacet
  facet normal 9.659258e-01 -2.588190e-01 0.000000e+00
    outer loop
      vertex   6.625650e+01 -1.680755e+02 7.585000e+01
      vertex   9.278545e+01 -6.906808e+01 -7.585000e+01
      vertex   9.278545e+01 -6.906808e+01 7.585000e+01
    endloop
  endfacet
  facet normal -2.588190e-01 -9.659258e-01 1.212274e-17
    outer loop
      vertex   -3.275090e+01 -1.415465e+02 -7.585000e+01
      vertex   6.625650e+01 -1.680755e+02 -7.585000e+01
      vertex   -3.275090e+01 -1.415465e+02 7.585000e+01
    endloop
  endfacet
  facet normal -2.588190e-01 -9.659258e-01 0.000000e+00
    outer loop
      vertex   -3.275090e+01 -1.415465e+02 7.585000e+01
      vertex   6.625650e+01 -1.680755e+02 -7.585000e+01
      vertex   6.625650e+01 -1.680755e+02 7.585000e+01
    endloop
  endfacet
  facet normal 0.000000e+00 0.000000e+00 -1.000000e+00
    outer loop
      vertex   6.625650e+01 -1.680755e+02 -7.585000e+01
      vertex   -3.275090e+01 -1.415465e+02 -7.585000e+01
      vertex   9.278545e+01 -6.906808e+01 -7.585000e+01
    endloop
  endfacet
  facet normal -0.000000e+00 0.000000e+00 -1.000000e+00
    outer loop
      vertex   9.278545e+01 -6.906808e+01 -7.585000e+01
      vertex   -3.275090e+01 -1.415465e+02 -7.585000e+01
      vertex   -6.221944e+00 -4.253913e+01 -7.585000e+01
    endloop
  endfacet
  facet normal -0.000000e+00 0.000000e+00 1.000000e+00
    outer loop
      vertex   -3.275090e+01 -1.415465e+02 7.585000e+01
      vertex   6.625650e+01 -1.680755e+02 7.585000e+01
      vertex   -6.221944e+00 -4.253913e+01 7.585000e+01
    endloop
  endfacet
  facet normal 0.000000e+00 0.000000e+00 1.000000e+00
    outer loop
      vertex   -6.221944e+00 -4.253913e+01 7.585000e+01
      vertex   6.625650e+01 -1.680755e+02 7.585000e+01
      vertex   9.278545e+01 -6.906808e+01 7.585000e+01
    endloop
  endfacet
endsolid
