solid ASCII
  facet normal 9.659258e-01 -2.588190e-01 -3.660435e-16
    outer loop
      vertex   1.405144e+02 1.301158e+02 7.500000e+01
      vertex   1.142183e+02 3.197773e+01 7.500000e+01
      vertex   1.405144e+02 1.301158e+02 -7.500000e+01
    endloop
  endfacet
  facet normal 9.659258e-01 -2.588190e-01 -2.983907e-16
    outer loop
      vertex   1.405144e+02 1.301158e+02 -7.500000e+01
      vertex   1.142183e+02 3.197773e+01 7.500000e+01
      vertex   1.142183e+02 3.197773e+01 -7.500000e+01
    endloop
  endfacet
  facet normal 2.588190e-01 9.659258e-01 -8.582093e-17
    outer loop
      vertex   4.237629e+01 1.564118e+02 7.500000e+01
      vertex   1.405144e+02 1.301158e+02 7.500000e+01
      vertex   4.237629e+01 1.564118e+02 -7.500000e+01
    endloop
  endfacet
  facet normal 2.588190e-01 9.659258e-01 -8.951720e-17
    outer loop
      vertex   4.237629e+01 1.564118e+02 -7.500000e+01
      vertex   1.405144e+02 1.301158e+02 7.500000e+01
      vertex   1.405144e+02 1.301158e+02 -7.500000e+01
    endloop
  endfacet
  facet normal -9.659258e-01 2.588190e-01 3.660435e-16
    outer loop
      vertex   1.608028e+01 5.827375e+01 7.500000e+01
      vertex   4.237629e+01 1.564118e+02 7.500000e+01
      vertex   1.608028e+01 5.827375e+01 -7.500000e+01
    endloop
  endfacet
  facet normal -9.659258e-01 2.588190e-01 3.282297e-16
    outer loop
      vertex   1.608028e+01 5.827375e+01 -7.500000e+01
      vertex   4.237629e+01 1.564118e+02 7.500000e+01
      vertex   4.237629e+01 1.564118e+02 -7.500000e+01
    endloop
  endfacet
  facet normal -2.588190e-01 -9.659258e-01 7.356080e-17
    outer loop
      vertex   1.142183e+02 3.197773e+01 7.500000e+01
      vertex   1.608028e+01 5.827375e+01 7.500000e+01
      vertex   1.142183e+02 3.197773e+01 -7.500000e+01
    endloop
  endfacet
  facet normal -2.588190e-01 -9.659258e-01 8.951720e-17
    outer loop
      vertex   1.142183e+02 3.197773e+01 -7.500000e+01
      vertex   1.608028e+01 5.827375e+01 7.500000e+01
      vertex   1.608028e+01 5.827375e+01 -7.500000e+01
    endloop
  endfacet
  facet normal -5.404186e-16 1.448047e-16 -1.000000e+00
    outer loop
      vertex   1.142183e+02 3.197773e+01 -7.500000e+01
      vertex   1.608028e+01 5.827375e+01 -7.500000e+01
      vertex   1.405144e+02 1.301158e+02 -7.500000e+01
    endloop
  endfacet
  facet normal -5.404186e-16 1.448047e-16 -1.000000e+00
    outer loop
      vertex   1.405144e+02 1.301158e+02 -7.500000e+01
      vertex   1.608028e+01 5.827375e+01 -7.500000e+01
      vertex   4.237629e+01 1.564118e+02 -7.500000e+01
    endloop
  endfacet
  facet normal 2.702093e-16 -7.240236e-17 1.000000e+00
    outer loop
      vertex   1.608028e+01 5.827375e+01 7.500000e+01
      vertex   1.142183e+02 3.197773e+01 7.500000e+01
      vertex   4.237629e+01 1.564118e+02 7.500000e+01
    endloop
  endfacet
  facet normal 2.702093e-16 -7.240236e-17 1.000000e+00
    outer loop
      vertex   4.237629e+01 1.564118e+02 7.500000e+01
      vertex   1.142183e+02 3.197773e+01 7.500000e+01
      vertex   1.405144e+02 1.301158e+02 7.500000e+01
    endloop
  endfacet
  facet normal 9.659258e-01 -2.588190e-01 8.494069e-17
    outer loop
      vertex   4.141037e+01 1.566706e+02 7.500000e+01
      vertex   1.511435e+01 5.853257e+01 7.500000e+01
      vertex   4.141037e+01 1.566706e+02 -7.500000e+01
    endloop
  endfacet
  facet normal 9.659258e-01 -2.588190e-01 2.088735e-16
    outer loop
      vertex   4.141037e+01 1.566706e+02 -7.500000e+01
      vertex   1.511435e+01 5.853257e+01 7.500000e+01
      vertex   1.511435e+01 5.853257e+01 -7.500000e+01
    endloop
  endfacet
  facet normal 2.588190e-01 9.659258e-01 7.356080e-17
    outer loop
      vertex   -5.672770e+01 1.829666e+02 7.500000e+01
      vertex   4.141037e+01 1.566706e+02 7.500000e+01
      vertex   -5.672770e+01 1.829666e+02 -7.500000e+01
    endloop
  endfacet
  facet normal 2.588190e-01 9.659258e-01 4.177469e-16
    outer loop
      vertex   -5.672770e+01 1.829666e+02 -7.500000e+01
      vertex   4.141037e+01 1.566706e+02 7.500000e+01
      vertex   4.141037e+01 1.566706e+02 -7.500000e+01
    endloop
  endfacet
  facet normal -9.659258e-01 2.588190e-01 -2.254921e-16
    outer loop
      vertex   -8.302371e+01 8.482858e+01 7.500000e+01
      vertex   -5.672770e+01 1.829666e+02 7.500000e+01
      vertex   -8.302371e+01 8.482858e+01 -7.500000e+01
    endloop
  endfacet
  facet normal -9.659258e-01 2.588190e-01 -2.685516e-16
    outer loop
      vertex   -8.302371e+01 8.482858e+01 -7.500000e+01
      vertex   -5.672770e+01 1.829666e+02 7.500000e+01
      vertex   -5.672770e+01 1.829666e+02 -7.500000e+01
    endloop
  endfacet
  facet normal -2.588190e-01 -9.659258e-01 -3.480934e-16
    outer loop
      vertex   1.511435e+01 5.853257e+01 7.500000e+01
      vertex   -8.302371e+01 8.482858e+01 7.500000e+01
      vertex   1.511435e+01 5.853257e+01 -7.500000e+01
    endloop
  endfacet
  facet normal -2.588190e-01 -9.659258e-01 -2.387125e-16
    outer loop
      vertex   1.511435e+01 5.853257e+01 -7.500000e+01
      vertex   -8.302371e+01 8.482858e+01 7.500000e+01
      vertex   -8.302371e+01 8.482858e+01 -7.500000e+01
    endloop
  endfacet
  facet normal 3.426116e-16 1.978069e-16 -1.000000e+00
    outer loop
      vertex   1.511435e+01 5.853257e+01 -7.500000e+01
      vertex   -8.302371e+01 8.482858e+01 -7.500000e+01
      vertex   4.141037e+01 1.566706e+02 -7.500000e+01
    endloop
  endfacet
  facet normal 3.426116e-16 1.978069e-16 -1.000000e+00
    outer loop
      vertex   4.141037e+01 1.566706e+02 -7.500000e+01
      vertex   -8.302371e+01 8.482858e+01 -7.500000e+01
      vertex   -5.672770e+01 1.829666e+02 -7.500000e+01
    endloop
  endfacet
  facet normal -3.426116e-16 -1.978069e-16 1.000000e+00
    outer loop
      vertex   -8.302371e+01 8.482858e+01 7.500000e+01
      vertex   1.511435e+01 5.853257e+01 7.500000e+01
      vertex   -5.672770e+01 1.829666e+02 7.500000e+01
    endloop
  endfacet
  facet normal -3.426116e-16 -1.978069e-16 1.000000e+00
    outer loop
      vertex   -5.672770e+01 1.829666e+02 7.500000e+01
      vertex   1.511435e+01 5.853257e+01 7.500000e+01
      vertex   4.141037e+01 1.566706e+02 7.500000e+01
    endloop
  endfacet
  facet normal 9.659258e-01 -2.588190e-01 3.480934e-16
    outer loop
      vertex   -2.851454e+01 6.918762e+01 7.500000e+01
      vertex   -5.481055e+01 -2.895045e+01 7.500000e+01
      vertex   -2.851454e+01 6.918762e+01 -7.500000e+01
    endloop
  endfacet
  facet normal 9.659258e-01 -2.588190e-01 4.177469e-16
    outer loop
      vertex   -2.851454e+01 6.918762e+01 -7.500000e+01
      vertex   -5.481055e+01 -2.895045e+01 7.500000e+01
      vertex   -5.481055e+01 -2.895045e+01 -7.500000e+01
    endloop
  endfacet
  facet normal 2.588190e-01 9.659258e-01 -2.009718e-16
    outer loop
      vertex   -1.266526e+02 9.548363e+01 7.500000e+01
      vertex   -2.851454e+01 6.918762e+01 7.500000e+01
      vertex   -1.266526e+02 9.548363e+01 -7.500000e+01
    endloop
  endfacet
  facet normal 2.588190e-01 9.659258e-01 -2.088735e-16
    outer loop
      vertex   -1.266526e+02 9.548363e+01 -7.500000e+01
      vertex   -2.851454e+01 6.918762e+01 7.500000e+01
      vertex   -2.851454e+01 6.918762e+01 -7.500000e+01
    endloop
  endfacet
  facet normal -9.659258e-01 2.588190e-01 -2.443224e-16
    outer loop
      vertex   -1.529486e+02 -2.654433e+00 7.500000e+01
      vertex   -1.266526e+02 9.548363e+01 7.500000e+01
      vertex   -1.529486e+02 -2.654433e+00 -7.500000e+01
    endloop
  endfacet
  facet normal -9.659258e-01 2.588190e-01 -3.282297e-16
    outer loop
      vertex   -1.529486e+02 -2.654433e+00 -7.500000e+01
      vertex   -1.266526e+02 9.548363e+01 7.500000e+01
      vertex   -1.266526e+02 9.548363e+01 -7.500000e+01
    endloop
  endfacet
  facet normal -2.588190e-01 -9.659258e-01 1.429563e-16
    outer loop
      vertex   -5.481055e+01 -2.895045e+01 7.500000e+01
      vertex   -1.529486e+02 -2.654433e+00 7.500000e+01
      vertex   -5.481055e+01 -2.895045e+01 -7.500000e+01
    endloop
  endfacet
  facet normal -2.588190e-01 -9.659258e-01 1.790344e-16
    outer loop
      vertex   -5.481055e+01 -2.895045e+01 -7.500000e+01
      vertex   -1.529486e+02 -2.654433e+00 7.500000e+01
      vertex   -1.529486e+02 -2.654433e+00 -7.500000e+01
    endloop
  endfacet
  facet normal 5.404186e-16 -1.448047e-16 -1.000000e+00
    outer loop
      vertex   -5.481055e+01 -2.895045e+01 -7.500000e+01
      vertex   -1.529486e+02 -2.654433e+00 -7.500000e+01
      vertex   -2.851454e+01 6.918762e+01 -7.500000e+01
    endloop
  endfacet
  facet normal 5.404186e-16 -1.448047e-16 -1.000000e+00
    outer loop
      vertex   -2.851454e+01 6.918762e+01 -7.500000e+01
      vertex   -1.529486e+02 -2.654433e+00 -7.500000e+01
      vertex   -1.266526e+02 9.548363e+01 -7.500000e+01
    endloop
  endfacet
  facet normal -3.691127e-16 2.437082e-16 1.000000e+00
    outer loop
      vertex   -1.529486e+02 -2.654433e+00 7.500000e+01
      vertex   -5.481055e+01 -2.895045e+01 7.500000e+01
      vertex   -1.266526e+02 9.548363e+01 7.500000e+01
    endloop
  endfacet
  facet normal -3.691127e-16 2.437082e-16 1.000000e+00
    outer loop
      vertex   -1.266526e+02 9.548363e+01 7.500000e+01
      vertex   -5.481055e+01 -2.895045e+01 7.500000e+01
      vertex   -2.851454e+01 6.918762e+01 7.500000e+01
    endloop
  endfacet
  facet normal 9.659258e-01 -2.588190e-01 -6.226261e-16
    outer loop
      vertex   1.670854e+02 1.677676e+01 7.500000e+01
      vertex   1.407894e+02 -8.136130e+01 7.500000e+01
      vertex   1.670854e+02 1.677676e+01 -7.500000e+01
    endloop
  endfacet
  facet normal 9.659258e-01 -2.588190e-01 -4.177469e-16
    outer loop
      vertex   1.670854e+02 1.677676e+01 -7.500000e+01
      vertex   1.407894e+02 -8.136130e+01 7.500000e+01
      vertex   1.407894e+02 -8.136130e+01 -7.500000e+01
    endloop
  endfacet
  facet normal 2.588190e-01 9.659258e-01 1.519313e-16
    outer loop
      vertex   6.894738e+01 4.307277e+01 7.500000e+01
      vertex   1.670854e+02 1.677676e+01 7.500000e+01
      vertex   6.894738e+01 4.307277e+01 -7.500000e+01
    endloop
  endfacet
  facet normal 2.588190e-01 9.659258e-01 1.193563e-16
    outer loop
      vertex   6.894738e+01 4.307277e+01 -7.500000e+01
      vertex   1.670854e+02 1.677676e+01 7.500000e+01
      vertex   1.670854e+02 1.677676e+01 -7.500000e+01
    endloop
  endfacet
  facet normal -9.659258e-01 2.588190e-01 6.226261e-16
    outer loop
      vertex   4.265136e+01 -5.506529e+01 7.500000e+01
      vertex   6.894738e+01 4.307277e+01 7.500000e+01
      vertex   4.265136e+01 -5.506529e+01 -7.500000e+01
    endloop
  endfacet
  facet normal -9.659258e-01 2.588190e-01 5.072641e-16
    outer loop
      vertex   4.265136e+01 -5.506529e+01 -7.500000e+01
      vertex   6.894738e+01 4.307277e+01 7.500000e+01
      vertex   6.894738e+01 4.307277e+01 -7.500000e+01
    endloop
  endfacet
  facet normal -2.588190e-01 -9.659258e-01 -1.764516e-16
    outer loop
      vertex   1.407894e+02 -8.136130e+01 7.500000e+01
      vertex   4.265136e+01 -5.506529e+01 7.500000e+01
      vertex   1.407894e+02 -8.136130e+01 -7.500000e+01
    endloop
  endfacet
  facet normal -2.588190e-01 -9.659258e-01 -1.193563e-16
    outer loop
      vertex   1.407894e+02 -8.136130e+01 -7.500000e+01
      vertex   4.265136e+01 -5.506529e+01 7.500000e+01
      vertex   4.265136e+01 -5.506529e+01 -7.500000e+01
    endloop
  endfacet
  facet normal -5.404186e-16 1.448047e-16 -1.000000e+00
    outer loop
      vertex   1.407894e+02 -8.136130e+01 -7.500000e+01
      vertex   4.265136e+01 -5.506529e+01 -7.500000e+01
      vertex   1.670854e+02 1.677676e+01 -7.500000e+01
    endloop
  endfacet
  facet normal -5.404186e-16 1.448047e-16 -1.000000e+00
    outer loop
      vertex   1.670854e+02 1.677676e+01 -7.500000e+01
      vertex   4.265136e+01 -5.506529e+01 -7.500000e+01
      vertex   6.894738e+01 4.307277e+01 -7.500000e+01
    endloop
  endfacet
  facet normal 6.393220e-16 -3.161105e-16 1.000000e+00
    outer loop
      vertex   4.265136e+01 -5.506529e+01 7.500000e+01
      vertex   1.407894e+02 -8.136130e+01 7.500000e+01
      vertex   6.894738e+01 4.307277e+01 7.500000e+01
    endloop
  endfacet
  facet normal 6.393220e-16 -3.161105e-16 1.000000e+00
    outer loop
      vertex   6.894738e+01 4.307277e+01 7.500000e+01
      vertex   1.407894e+02 -8.136130e+01 7.500000e+01
      vertex   1.670854e+02 1.677676e+01 7.500000e+01
    endloop
  endfacet
  facet normal 9.659258e-01 -2.588190e-01 -2.099469e-16
    outer loop
      vertex   -1.652893e+01 -4.024325e+01 7.500000e+01
      vertex   -4.282495e+01 -1.383813e+02 7.500000e+01
      vertex   -1.652893e+01 -4.024325e+01 -7.500000e+01
    endloop
  endfacet
  facet normal 9.659258e-01 -2.588190e-01 -2.685516e-16
    outer loop
      vertex   -1.652893e+01 -4.024325e+01 -7.500000e+01
      vertex   -4.282495e+01 -1.383813e+02 7.500000e+01
      vertex   -4.282495e+01 -1.383813e+02 -7.500000e+01
    endloop
  endfacet
  facet normal 2.588190e-01 9.659258e-01 -4.641246e-16
    outer loop
      vertex   -1.146670e+02 -1.394724e+01 7.500000e+01
      vertex   -1.652893e+01 -4.024325e+01 7.500000e+01
      vertex   -1.146670e+02 -1.394724e+01 -7.500000e+01
    endloop
  endfacet
  facet normal 2.588190e-01 9.659258e-01 -5.072641e-16
    outer loop
      vertex   -1.146670e+02 -1.394724e+01 -7.500000e+01
      vertex   -1.652893e+01 -4.024325e+01 7.500000e+01
      vertex   -1.652893e+01 -4.024325e+01 -7.500000e+01
    endloop
  endfacet
  facet normal -9.659258e-01 2.588190e-01 2.679624e-16
    outer loop
      vertex   -1.409630e+02 -1.120853e+02 7.500000e+01
      vertex   -1.146670e+02 -1.394724e+01 7.500000e+01
      vertex   -1.409630e+02 -1.120853e+02 -7.500000e+01
    endloop
  endfacet
  facet normal -9.659258e-01 2.588190e-01 2.685516e-16
    outer loop
      vertex   -1.409630e+02 -1.120853e+02 -7.500000e+01
      vertex   -1.146670e+02 -1.394724e+01 7.500000e+01
      vertex   -1.146670e+02 -1.394724e+01 -7.500000e+01
    endloop
  endfacet
  facet normal -2.588190e-01 -9.659258e-01 6.594065e-16
    outer loop
      vertex   -4.282495e+01 -1.383813e+02 7.500000e+01
      vertex   -1.409630e+02 -1.120853e+02 7.500000e+01
      vertex   -4.282495e+01 -1.383813e+02 -7.500000e+01
    endloop
  endfacet
  facet normal -2.588190e-01 -9.659258e-01 4.475860e-16
    outer loop
      vertex   -4.282495e+01 -1.383813e+02 -7.500000e+01
      vertex   -1.409630e+02 -1.120853e+02 7.500000e+01
      vertex   -1.409630e+02 -1.120853e+02 -7.500000e+01
    endloop
  endfacet
  facet normal -3.426116e-16 -1.978069e-16 -1.000000e+00
    outer loop
      vertex   -4.282495e+01 -1.383813e+02 -7.500000e+01
      vertex   -1.409630e+02 -1.120853e+02 -7.500000e+01
      vertex   -1.652893e+01 -4.024325e+01 -7.500000e+01
    endloop
  endfacet
  facet normal -3.426116e-16 -1.978069e-16 -1.000000e+00
    outer loop
      vertex   -1.652893e+01 -4.024325e+01 -7.500000e+01
      vertex   -1.409630e+02 -1.120853e+02 -7.500000e+01
      vertex   -1.146670e+02 -1.394724e+01 -7.500000e+01
    endloop
  endfacet
  facet normal 4.150140e-16 4.680162e-16 1.000000e+00
    outer loop
      vertex   -1.409630e+02 -1.120853e+02 7.500000e+01
      vertex   -4.282495e+01 -1.383813e+02 7.500000e+01
      vertex   -1.146670e+02 -1.394724e+01 7.500000e+01
    endloop
  endfacet
  facet normal 4.150140e-16 4.680162e-16 1.000000e+00
    outer loop
      vertex   -1.146670e+02 -1.394724e+01 7.500000e+01
      vertex   -4.282495e+01 -1.383813e+02 7.500000e+01
      vertex   -1.652893e+01 -4.024325e+01 7.500000e+01
    endloop
  endfacet
  facet normal 9.659258e-01 -2.588190e-01 -3.660435e-16
    outer loop
      vertex   9.223432e+01 -6.938628e+01 7.500000e+01
      vertex   6.593830e+01 -1.675243e+02 7.500000e+01
      vertex   9.223432e+01 -6.938628e+01 -7.500000e+01
    endloop
  endfacet
  facet normal 9.659258e-01 -2.588190e-01 -2.685516e-16
    outer loop
      vertex   9.223432e+01 -6.938628e+01 -7.500000e+01
      vertex   6.593830e+01 -1.675243e+02 7.500000e+01
      vertex   6.593830e+01 -1.675243e+02 -7.500000e+01
    endloop
  endfacet
  facet normal 2.588190e-01 9.659258e-01 -8.582093e-17
    outer loop
      vertex   -5.903746e+00 -4.309026e+01 7.500000e+01
      vertex   9.223432e+01 -6.938628e+01 7.500000e+01
      vertex   -5.903746e+00 -4.309026e+01 -7.500000e+01
    endloop
  endfacet
  facet normal 2.588190e-01 9.659258e-01 -8.951720e-17
    outer loop
      vertex   -5.903746e+00 -4.309026e+01 -7.500000e+01
      vertex   9.223432e+01 -6.938628e+01 7.500000e+01
      vertex   9.223432e+01 -6.938628e+01 -7.500000e+01
    endloop
  endfacet
  facet normal -9.659258e-01 2.588190e-01 2.745326e-16
    outer loop
      vertex   -3.219976e+01 -1.412283e+02 7.500000e+01
      vertex   -5.903746e+00 -4.309026e+01 7.500000e+01
      vertex   -3.219976e+01 -1.412283e+02 -7.500000e+01
    endloop
  endfacet
  facet normal -9.659258e-01 2.588190e-01 2.983907e-16
    outer loop
      vertex   -3.219976e+01 -1.412283e+02 -7.500000e+01
      vertex   -5.903746e+00 -4.309026e+01 7.500000e+01
      vertex   -5.903746e+00 -4.309026e+01 -7.500000e+01
    endloop
  endfacet
  facet normal -2.588190e-01 -9.659258e-01 7.356080e-17
    outer loop
      vertex   6.593830e+01 -1.675243e+02 7.500000e+01
      vertex   -3.219976e+01 -1.412283e+02 7.500000e+01
      vertex   6.593830e+01 -1.675243e+02 -7.500000e+01
    endloop
  endfacet
  facet normal -2.588190e-01 -9.659258e-01 8.951720e-17
    outer loop
      vertex   6.593830e+01 -1.675243e+02 -7.500000e+01
      vertex   -3.219976e+01 -1.412283e+02 7.500000e+01
      vertex   -3.219976e+01 -1.412283e+02 -7.500000e+01
    endloop
  endfacet
  facet normal -5.404186e-16 1.448047e-16 -1.000000e+00
    outer loop
      vertex   6.593830e+01 -1.675243e+02 -7.500000e+01
      vertex   -3.219976e+01 -1.412283e+02 -7.500000e+01
      vertex   9.223432e+01 -6.938628e+01 -7.500000e+01
    endloop
  endfacet
  facet normal -5.404186e-16 1.448047e-16 -1.000000e+00
    outer loop
      vertex   9.223432e+01 -6.938628e+01 -7.500000e+01
      vertex   -3.219976e+01 -1.412283e+02 -7.500000e+01
      vertex   -5.903746e+00 -4.309026e+01 -7.500000e+01
    endloop
  endfacet
  facet normal 2.702093e-16 -7.240236e-17 1.000000e+00
    outer loop
      vertex   -3.219976e+01 -1.412283e+02 7.500000e+01
      vertex   6.593830e+01 -1.675243e+02 7.500000e+01
      vertex   -5.903746e+00 -4.309026e+01 7.500000e+01
    endloop
  endfacet
  facet normal 2.702093e-16 -7.240236e-17 1.000000e+00
    outer loop
      vertex   -5.903746e+00 -4.309026e+01 7.500000e+01
      vertex   6.593830e+01 -1.675243e+02 7.500000e+01
      vertex   9.223432e+01 -6.938628e+01 7.500000e+01
    endloop
  endfacet
endsolid
